<?xml version="1.0" encoding="utf-8"?>
<!-- Generator: Adobe Illustrator 19.0.0, SVG Export Plug-In . SVG Version: 6.00 Build 0)  -->
<svg version="1.1" id="Layer_1" xmlns="http://www.w3.org/2000/svg" xmlns:xlink="http://www.w3.org/1999/xlink" x="0px" y="0px"
	 viewBox="-99 101 300 300" style="enable-background:new -99 101 300 300;" xml:space="preserve">
<style type="text/css">
	.st0{enable-background:new    ;}
	.st1{fill:#706F6F;}
</style>
<g id="XMLID_36_">
	<g id="XMLID_37_">
		<g id="XMLID_38_">
			<g id="XMLID_69_">
				
					<text id="XMLID_70_" transform="matrix(1 0 0 1 686.8243 316.2332)" class="st1" style="font-family:'RobotoSlab-Bold'; font-size:24.4539px; letter-spacing:3;">WIFI</text>
			</g>
		</g>
	</g>
</g>
<g id="XMLID_1_">
	<g id="XMLID_2_">
		<g id="XMLID_3_">
			<g id="XMLID_8_">
				<g class="st0">
					<path class="st1" d="M-52.3,308.6h-5.9v5h5.6l0.2-2.1h2.7v4.8h-13.8v-2.1l1.9-0.4v-12.5l-1.9-0.4v-2.1h1.9h11.9v4.8h-2.7
						l-0.2-2.1h-5.6v4.4h5.9V308.6z"/>
					<path class="st1" d="M-27.2,303.4L-27.2,303.4l-4.7,12.9h-2.3l-4.6-12.8l-0.1,0l0.3,7.6v2.7l1.9,0.4v2.1h-7.2v-2.1l1.9-0.4
						v-12.5l-1.9-0.4v-2.1h1.9h4.5l4.4,12.8h0.1l4.5-12.8h6.4v2.1l-1.9,0.4v12.5l1.9,0.4v2.1h-7.2v-2.1l1.9-0.4v-2.7L-27.2,303.4z"
						/>
					<path class="st1" d="M-5.7,308.6h-5.9v5H-6l0.2-2.1h2.7v4.8h-13.8v-2.1l1.9-0.4v-12.5l-1.9-0.4v-2.1h1.9h11.9v4.8h-2.7
						l-0.2-2.1h-5.6v4.4h5.9V308.6z"/>
					<path class="st1" d="M10.5,298.8c2,0,3.5,0.5,4.6,1.4c1.1,0.9,1.7,2.2,1.7,3.7c0,0.9-0.2,1.6-0.7,2.3s-1.2,1.2-2.1,1.6
						c1,0.3,1.8,0.8,2.2,1.5c0.4,0.7,0.7,1.6,0.7,2.6v0.9c0,0.4,0.1,0.7,0.2,0.9c0.2,0.2,0.4,0.3,0.8,0.4l0.4,0.1v2.1h-1.8
						c-1.1,0-1.9-0.3-2.4-0.9c-0.5-0.6-0.7-1.4-0.7-2.4v-1c0-0.8-0.2-1.5-0.7-2s-1.1-0.7-1.9-0.8H8v4.6l1.9,0.4v2.1H2.7v-2.1
						l1.9-0.4v-12.5L2.7,301v-2.1h1.9H10.5z M8,306.5h2.4c1,0,1.7-0.2,2.2-0.6c0.5-0.4,0.7-1,0.7-1.8c0-0.8-0.2-1.4-0.7-1.9
						s-1.2-0.7-2.1-0.7H8V306.5z"/>
					<path class="st1" d="M37.9,314.3c-0.6,0.6-1.4,1.1-2.5,1.5s-2.5,0.7-4.1,0.7c-2.3,0-4.3-0.8-5.7-2.4s-2.2-3.6-2.2-6.1v-0.6
						c0-2.6,0.7-4.7,2.2-6.4s3.3-2.4,5.7-2.4c1.4,0,2.6,0.2,3.7,0.7c1.1,0.4,2.1,1,2.8,1.8v3.5h-2.6l-0.5-2.3
						c-0.3-0.3-0.7-0.5-1.3-0.7c-0.5-0.2-1.1-0.2-1.8-0.2c-1.5,0-2.7,0.6-3.5,1.7c-0.8,1.1-1.3,2.6-1.3,4.4v0.6
						c0,1.8,0.4,3.2,1.2,4.2c0.8,1.1,2,1.6,3.6,1.6c0.7,0,1.3-0.1,1.7-0.2c0.4-0.1,0.8-0.3,1-0.4v-2.9l-2.5-0.2v-2.4h6V314.3z"/>
					<path class="st1" d="M54.9,308.6H49v5h5.6l0.2-2.1h2.7v4.8H43.6v-2.1l1.9-0.4v-12.5l-1.9-0.4v-2.1h1.9h11.9v4.8h-2.7l-0.2-2.1
						H49v4.4h5.9V308.6z"/>
					<path class="st1" d="M81,298.8v2.1l-1.9,0.4v14.9h-3.5l-7-11.7l-0.1,0v9.2l1.9,0.4v2.1h-7.2v-2.1l1.9-0.4v-12.5l-1.9-0.4v-2.1
						h1.9h3.5l7,11.7l0.1,0v-9.2l-1.9-0.4v-2.1h5.3H81z"/>
					<path class="st1" d="M100.4,304.7h-2.6l-0.4-2.3c-0.3-0.3-0.8-0.6-1.3-0.8c-0.5-0.2-1.1-0.3-1.8-0.3c-1.5,0-2.7,0.5-3.5,1.6
						c-0.8,1.1-1.2,2.5-1.2,4.3v0.6c0,1.8,0.4,3.2,1.2,4.3c0.8,1.1,2,1.7,3.4,1.7c0.7,0,1.3-0.1,1.9-0.3c0.6-0.2,1-0.5,1.3-0.8
						l0.4-2.3h2.6v3.4c-0.7,0.8-1.6,1.5-2.7,1.9c-1.1,0.5-2.3,0.7-3.6,0.7c-2.3,0-4.2-0.8-5.7-2.4c-1.5-1.6-2.2-3.7-2.2-6.2v-0.6
						c0-2.5,0.7-4.6,2.2-6.2s3.4-2.4,5.7-2.4c1.3,0,2.6,0.2,3.6,0.7c1.1,0.5,2,1.1,2.7,1.9V304.7z"/>
					<path class="st1" d="M105.9,301v-2.1h7.2v2.1l-1.9,0.4v12.5l1.9,0.4v2.1h-7.2v-2.1l1.9-0.4v-12.5L105.9,301z"/>
					<path class="st1" d="M118.3,314.1l1.2-0.2l5.3-15.1h3.6l5.3,15.1l1.2,0.2v2.1h-5.9v-2.1l1.2-0.2l-0.8-2.4h-5.6l-0.8,2.4
						l1.2,0.2v2.1h-5.9V314.1z M124.6,309h4l-2-6.1h-0.1L124.6,309z"/>
					<path class="st1" d="M153.2,304.4h-2.6l-0.5-2.4c-0.3-0.2-0.7-0.4-1.3-0.5s-1.2-0.2-1.9-0.2c-1,0-1.7,0.2-2.2,0.6
						c-0.5,0.4-0.8,0.9-0.8,1.6c0,0.6,0.3,1.1,0.8,1.5c0.5,0.4,1.5,0.8,2.8,1.2c1.9,0.5,3.4,1.2,4.4,2.1c1,0.9,1.5,2,1.5,3.5
						c0,1.5-0.6,2.7-1.8,3.5c-1.2,0.9-2.7,1.3-4.7,1.3c-1.4,0-2.6-0.2-3.7-0.7s-2-1-2.8-1.8v-3.6h2.7l0.4,2.5
						c0.4,0.3,0.8,0.5,1.4,0.7c0.6,0.2,1.3,0.3,2,0.3c1,0,1.7-0.2,2.2-0.6c0.5-0.4,0.7-0.9,0.7-1.6c0-0.7-0.2-1.2-0.7-1.6
						s-1.3-0.8-2.5-1.1c-2.1-0.6-3.6-1.3-4.7-2.1s-1.6-1.9-1.6-3.4c0-1.4,0.6-2.6,1.8-3.5c1.2-0.9,2.7-1.4,4.5-1.4
						c1.3,0,2.6,0.2,3.7,0.6c1.1,0.4,2,0.9,2.8,1.6V304.4z"/>
					<path class="st1" d="M-5.7,332.7L-5.7,332.7l-4.7,12.9h-2.3l-4.6-12.8l-0.1,0l0.3,7.6v2.7l1.9,0.4v2.1h-7.2v-2.1l1.9-0.4v-12.5
						l-1.9-0.4v-2.1h1.9h4.5l4.4,12.8h0.1l4.5-12.8h6.4v2.1l-1.9,0.4v12.5l1.9,0.4v2.1h-7.2v-2.1l1.9-0.4v-2.7L-5.7,332.7z"/>
					<path class="st1" d="M15.8,337.9H9.9v5h5.6l0.2-2.1h2.7v4.8H4.6v-2.1l1.9-0.4v-12.5l-1.9-0.4v-2.1h1.9h11.9v4.8h-2.7l-0.2-2.1
						H9.9v4.4h5.9V337.9z M11.8,323.8h3.7l0,0.1l-3.3,3.1H9.5L11.8,323.8z"/>
					<path class="st1" d="M32,328.2c2.1,0,3.9,0.7,5.3,2c1.4,1.4,2.1,3.1,2.1,5.2v2.9c0,2.1-0.7,3.9-2.1,5.2c-1.4,1.3-3.1,2-5.3,2
						h-7.8v-2.1l1.9-0.4v-12.5l-1.9-0.4v-2.1H26H32z M29.5,330.9v12h2.3c1.2,0,2.2-0.4,2.9-1.3c0.7-0.8,1.1-1.9,1.1-3.3v-2.9
						c0-1.3-0.4-2.4-1.1-3.3c-0.7-0.8-1.7-1.3-2.9-1.3H29.5z"/>
					<path class="st1" d="M45,330.3v-2.1h7.2v2.1l-1.9,0.4v12.5l1.9,0.4v2.1H45v-2.1l1.9-0.4v-12.5L45,330.3z"/>
					<path class="st1" d="M71.8,334.1h-2.6l-0.4-2.3c-0.3-0.3-0.8-0.6-1.3-0.8c-0.5-0.2-1.1-0.3-1.8-0.3c-1.5,0-2.7,0.5-3.5,1.6
						c-0.8,1.1-1.2,2.5-1.2,4.3v0.6c0,1.8,0.4,3.2,1.2,4.3c0.8,1.1,2,1.7,3.4,1.7c0.7,0,1.3-0.1,1.9-0.3c0.6-0.2,1-0.5,1.3-0.8
						l0.4-2.3h2.6v3.4c-0.7,0.8-1.6,1.5-2.7,1.9c-1.1,0.5-2.3,0.7-3.6,0.7c-2.3,0-4.2-0.8-5.7-2.4c-1.5-1.6-2.2-3.7-2.2-6.2v-0.6
						c0-2.5,0.7-4.6,2.2-6.2s3.4-2.4,5.7-2.4c1.3,0,2.6,0.2,3.6,0.7c1.1,0.5,2,1.1,2.7,1.9V334.1z"/>
					<path class="st1" d="M77.2,343.5l1.2-0.2l5.3-15.1h3.6l5.3,15.1l1.2,0.2v2.1h-5.9v-2.1l1.2-0.2l-0.8-2.4h-5.6l-0.8,2.4l1.2,0.2
						v2.1h-5.9V343.5z M83.5,338.3h4l-2-6.1h-0.1L83.5,338.3z"/>
					<path class="st1" d="M112.1,333.7h-2.6l-0.5-2.4c-0.3-0.2-0.7-0.4-1.3-0.5s-1.2-0.2-1.9-0.2c-1,0-1.7,0.2-2.2,0.6
						c-0.5,0.4-0.8,0.9-0.8,1.6c0,0.6,0.3,1.1,0.8,1.5c0.5,0.4,1.5,0.8,2.8,1.2c1.9,0.5,3.4,1.2,4.4,2.1c1,0.9,1.5,2,1.5,3.5
						c0,1.5-0.6,2.7-1.8,3.5c-1.2,0.9-2.7,1.3-4.7,1.3c-1.4,0-2.6-0.2-3.7-0.7s-2-1-2.8-1.8v-3.6h2.7l0.4,2.5
						c0.4,0.3,0.8,0.5,1.4,0.7c0.6,0.2,1.3,0.3,2,0.3c1,0,1.7-0.2,2.2-0.6c0.5-0.4,0.7-0.9,0.7-1.6c0-0.7-0.2-1.2-0.7-1.6
						s-1.3-0.8-2.5-1.1c-2.1-0.6-3.6-1.3-4.7-2.1s-1.6-1.9-1.6-3.4c0-1.4,0.6-2.6,1.8-3.5c1.2-0.9,2.7-1.4,4.5-1.4
						c1.3,0,2.6,0.2,3.7,0.6c1.1,0.4,2,0.9,2.8,1.6V333.7z"/>
				</g>
			</g>
		</g>
	</g>
</g>
<g id="XMLID_33_">
	<g id="XMLID_34_">
		<g id="XMLID_35_">
			<g id="XMLID_67_">
				
					<text id="XMLID_68_" transform="matrix(1 0 0 1 723.9865 362.791)" class="st1" style="font-family:'RobotoSlab-Bold'; font-size:40.7564px; letter-spacing:7;">WIFI</text>
			</g>
		</g>
	</g>
</g>
<g>
	<path class="st1" d="M16.3,230h4.5v4.4c0,1,0.8,1.8,1.8,1.8H31c1,0,1.8-0.8,1.8-1.8V230h4.5c1,0,1.8-0.8,1.8-1.8V220
		c0-1-0.8-1.8-1.8-1.8h-4.5v-4.4c0-1-0.8-1.8-1.8-1.8h-8.3c-1,0-1.8,0.8-1.8,1.8v4.4h-4.5c-1,0-1.8,0.8-1.8,1.8v8.2
		C14.5,229.2,15.3,230,16.3,230z M18.1,221.8h4.5c1,0,1.8-0.8,1.8-1.8v-4.4h4.7v4.4c0,1,0.8,1.8,1.8,1.8h4.5v4.6H31
		c-1,0-1.8,0.8-1.8,1.8v4.4h-4.7v-4.4c0-1-0.8-1.8-1.8-1.8h-4.5V221.8z"/>
	<path class="st1" d="M102.5,243.1c-0.1-0.5-0.1-0.9-0.2-1.5v0c-0.6-2.3-1.7-4.6-3.1-6.6c0,0,0,0,0,0c-0.3-0.6-6.6-11.6-22.1-16.9
		c0,0,0,0,0,0v-6c0-2.5-2.1-4.6-4.7-4.6h-3.8c-2.6,0-4.4,1.7-4.4,4.2v3.8c-1-0.1-2-0.1-3-0.1v-2.3c0-5.4-4.4-9.8-9.8-9.8H5.1
		c-5.4,0-9.8,4.4-9.8,9.8v29v8.8v3.5c0,5.4,4.4,9.8,9.8,9.8h1.1c1.5,4.6,5.8,8,10.9,8s9.4-3.4,10.9-8h44.3c1.5,4.6,5.8,8,10.9,8
		c5.2,0,9.5-3.4,11-8.1c4.9-0.6,8.7-4.7,8.7-9.7v-3.5v-5.7c0-0.2-0.1-0.5-0.1-0.7c0-0.2,0.1-0.3,0.1-0.5
		C102.8,243.7,102.7,243.4,102.5,243.1z M94.2,234.1H78.5c-7.9,0-13.8-10.1-16.2-15C80.7,220.1,90.5,229.4,94.2,234.1z M67.9,211.8
		c0-0.3,0-0.6,0.8-0.6h3.8c0.6,0,1.1,0.5,1.1,1v4.9c-1.8-0.5-3.7-0.8-5.6-1.1C67.9,216,67.9,211.8,67.9,211.8z M-1.1,213.1
		c0-3.4,2.8-6.2,6.2-6.2h46.3c3.4,0,6.2,2.8,6.2,6.2v3.8v0.2v25.1H-1.1v-0.1V213.1z M17.1,268.6c-4.4,0-7.9-3.6-7.9-7.9
		c0-4.4,3.6-7.9,7.9-7.9c4.4,0,7.9,3.6,7.9,7.9C25,265.1,21.4,268.6,17.1,268.6z M28.5,259.7c0-0.5,0-0.9-0.1-1.4
		c0-0.1-0.1-0.2-0.1-0.2c-0.5-2.2-1.6-4.1-3.1-5.6c0,0-0.1,0-0.1-0.1c-0.5-0.5-1-0.9-1.6-1.3c-0.3-0.2-0.7-0.4-1-0.5
		c-0.3-0.2-0.6-0.4-1-0.5c-0.6-0.3-1.3-0.5-2-0.6c-0.1,0-0.1,0-0.2-0.1c-0.8-0.2-1.5-0.2-2.3-0.2s-1.6,0.1-2.3,0.2
		c-4.4,0.9-7.9,4.4-8.9,8.8c0,0.1,0,0.1-0.1,0.2c-0.1,0.5-0.1,0.9-0.1,1.4c0,0.3-0.1,0.6-0.1,0.9H5.1c-3.4,0-6.2-2.8-6.2-6.2v-3.5
		v-5.1h58.8v14.8H28.6C28.6,260.3,28.5,260,28.5,259.7z M83.2,268.6c-4.4,0-7.9-3.6-7.9-7.9c0-4.4,3.6-7.9,7.9-7.9
		c4.4,0,7.9,3.6,7.9,7.9C91.1,265.1,87.6,268.6,83.2,268.6z M99.2,254.4c0,2.8-1.8,5.1-4.5,5.9c0-0.4-0.1-0.7-0.1-1.1
		c0-0.4-0.1-0.7-0.1-1.1c-0.1-0.4-0.2-0.8-0.4-1.1c-0.1-0.3-0.2-0.7-0.3-1c-0.2-0.4-0.4-0.7-0.6-1c-0.2-0.3-0.3-0.6-0.5-0.9
		c-0.2-0.3-0.5-0.6-0.8-0.9c-0.2-0.3-0.4-0.5-0.7-0.8c-0.3-0.3-0.6-0.5-0.9-0.8c-0.3-0.2-0.5-0.4-0.8-0.6c-0.4-0.2-0.8-0.4-1.2-0.6
		c-0.3-0.1-0.5-0.3-0.8-0.4c-0.5-0.2-1-0.3-1.4-0.5c-0.2-0.1-0.5-0.2-0.7-0.2c-0.7-0.2-1.5-0.2-2.3-0.2c-0.8,0-1.6,0.1-2.3,0.2
		c-0.1,0-0.1,0-0.2,0.1c-0.7,0.2-1.3,0.3-2,0.6c-0.3,0.1-0.6,0.3-1,0.5c-0.3,0.2-0.7,0.3-1,0.5c-0.6,0.4-1.1,0.8-1.6,1.3
		c0,0-0.1,0-0.1,0.1c-1.5,1.5-2.6,3.4-3.1,5.6c0,0.1-0.1,0.2-0.1,0.2c-0.1,0.5-0.1,0.9-0.1,1.4c0,0.3-0.1,0.6-0.1,0.9H61.3v-35.9
		c3.5,5.8,9.4,13,17.3,13h18.1c0.9,1.4,1.6,3,2,4.5H75.8c-1,0-1.8,0.8-1.8,1.8s0.8,1.8,1.8,1.8h23.4v5.1L99.2,254.4L99.2,254.4z"/>
	<circle class="st1" cx="17.1" cy="260.7" r="3"/>
	<circle class="st1" cx="83.2" cy="260.7" r="3"/>
</g>
</svg>
