<?xml version="1.0" encoding="utf-8"?>
<!-- Generator: Adobe Illustrator 19.0.0, SVG Export Plug-In . SVG Version: 6.00 Build 0)  -->
<svg version="1.1" id="Layer_1" xmlns="http://www.w3.org/2000/svg" xmlns:xlink="http://www.w3.org/1999/xlink" x="0px" y="0px"
	 viewBox="-99 101 300 300" style="enable-background:new -99 101 300 300;" xml:space="preserve">
<style type="text/css">
	.st0{enable-background:new    ;}
	.st1{fill:#706F6F;}
</style>
<g id="XMLID_36_">
	<g id="XMLID_37_">
		<g id="XMLID_38_">
			<g id="XMLID_69_">
				
					<text id="XMLID_70_" transform="matrix(1 0 0 1 686.8243 316.2332)" class="st1" style="font-family:'RobotoSlab-Bold'; font-size:24.4539px; letter-spacing:3;">WIFI</text>
			</g>
		</g>
	</g>
</g>
<g id="XMLID_1_">
	<g id="XMLID_2_">
		<g id="XMLID_3_">
			<g id="XMLID_4_">
				<g class="st0">
					<path class="st1" d="M-32.3,314.1l1.2-0.2l5.3-15.1h3.6L-17,314l1.2,0.2v2.1h-5.9v-2.1l1.2-0.2l-0.8-2.4h-5.6l-0.8,2.4l1.2,0.2
						v2.1h-5.9V314.1z M-26,309h4l-2-6.1h-0.1L-26,309z"/>
					<path class="st1" d="M6.2,303.4L6.2,303.4l-4.7,12.9h-2.3l-4.6-12.8l-0.1,0l0.3,7.6v2.7l1.9,0.4v2.1h-7.2v-2.1l1.9-0.4v-12.5
						l-1.9-0.4v-2.1h1.9h4.5l4.4,12.8h0.1l4.5-12.8h6.4v2.1l-1.9,0.4v12.5l1.9,0.4v2.1H4v-2.1l1.9-0.4v-2.7L6.2,303.4z"/>
					<path class="st1" d="M24.1,298.8c2,0,3.6,0.4,4.8,1.2c1.1,0.8,1.7,2,1.7,3.6c0,0.8-0.2,1.5-0.6,2.2s-1,1.1-1.9,1.4
						c1,0.2,1.8,0.7,2.3,1.4c0.5,0.7,0.8,1.6,0.8,2.5c0,1.7-0.5,2.9-1.6,3.8c-1.1,0.9-2.7,1.3-4.7,1.3h-8.5v-2.1l1.9-0.4v-12.5
						l-1.9-0.4v-2.1h1.9H24.1z M21.7,306.1h2.5c0.9,0,1.6-0.2,2.1-0.6s0.8-0.9,0.8-1.7c0-0.8-0.3-1.4-0.8-1.8
						c-0.5-0.4-1.3-0.6-2.3-0.6h-2.4V306.1z M21.7,308.5v5H25c0.9,0,1.6-0.2,2.1-0.6c0.5-0.4,0.7-1,0.7-1.8c0-0.9-0.2-1.5-0.6-2
						c-0.4-0.5-1.1-0.7-2-0.7H21.7z"/>
					<path class="st1" d="M36.5,301v-2.1h7.2v2.1l-1.9,0.4v12.5l1.9,0.4v2.1h-7.2v-2.1l1.9-0.4v-12.5L36.5,301z"/>
					<path class="st1" d="M60.3,308.6h-5.9v5H60l0.2-2.1h2.7v4.8H49.1v-2.1l1.9-0.4v-12.5l-1.9-0.4v-2.1h1.9h11.9v4.8h-2.7l-0.2-2.1
						h-5.6v4.4h5.9V308.6z"/>
					<path class="st1" d="M86.4,298.8v2.1l-1.9,0.4v14.9h-3.5l-7-11.7l-0.1,0v9.2l1.9,0.4v2.1h-7.2v-2.1l1.9-0.4v-12.5l-1.9-0.4
						v-2.1h1.9H74l7,11.7l0.1,0v-9.2l-1.9-0.4v-2.1h5.3H86.4z"/>
					<path class="st1" d="M106.8,298.8v4.6h-2.7l-0.1-1.9h-3.2v12.2l1.9,0.4v2.1h-7.2v-2.1l1.9-0.4v-12.2h-3.2l-0.1,1.9h-2.7v-4.6
						H106.8z"/>
					<path class="st1" d="M123.2,308.6h-5.9v5h5.6l0.2-2.1h2.7v4.8H112v-2.1l1.9-0.4v-12.5L112,301v-2.1h1.9h11.9v4.8H123l-0.2-2.1
						h-5.6v4.4h5.9V308.6z"/>
					<path class="st1" d="M-42.4,334.1H-45l-0.4-2.3c-0.3-0.3-0.8-0.6-1.3-0.8c-0.5-0.2-1.1-0.3-1.8-0.3c-1.5,0-2.7,0.5-3.5,1.6
						c-0.8,1.1-1.2,2.5-1.2,4.3v0.6c0,1.8,0.4,3.2,1.2,4.3c0.8,1.1,2,1.7,3.4,1.7c0.7,0,1.3-0.1,1.9-0.3c0.6-0.2,1-0.5,1.3-0.8
						l0.4-2.3h2.6v3.4c-0.7,0.8-1.6,1.5-2.7,1.9s-2.3,0.7-3.6,0.7c-2.3,0-4.2-0.8-5.7-2.4c-1.5-1.6-2.2-3.7-2.2-6.2v-0.6
						c0-2.5,0.7-4.6,2.2-6.2s3.4-2.4,5.7-2.4c1.3,0,2.6,0.2,3.6,0.7c1.1,0.5,2,1.1,2.7,1.9V334.1z"/>
					<path class="st1" d="M-36.8,345.6v-2.1l1.9-0.4v-12.5l-1.9-0.4v-2.1h1.9h3.5h1.9v2.1l-1.9,0.4v12.3h4.9l0.2-2.2h2.7v4.9H-36.8z
						"/>
					<path class="st1" d="M-18.5,330.3v-2.1h7.2v2.1l-1.9,0.4v12.5l1.9,0.4v2.1h-7.2v-2.1l1.9-0.4v-12.5L-18.5,330.3z"/>
					<path class="st1" d="M10.8,332.7L10.8,332.7l-4.7,12.9H3.7l-4.6-12.8l-0.1,0l0.3,7.6v2.7l1.9,0.4v2.1H-6v-2.1l1.9-0.4v-12.5
						l-1.9-0.4v-2.1h1.9h4.5L4.9,341h0.1l4.5-12.8h6.4v2.1l-1.9,0.4v12.5l1.9,0.4v2.1H8.6v-2.1l1.9-0.4v-2.7L10.8,332.7z"/>
					<path class="st1" d="M20.9,343.5l1.2-0.2l5.3-15.1H31l5.3,15.1l1.2,0.2v2.1h-5.9v-2.1l1.2-0.2l-0.8-2.4h-5.6l-0.8,2.4l1.2,0.2
						v2.1h-5.9V343.5z M27.2,338.3h4l-2-6.1h-0.1L27.2,338.3z"/>
					<path class="st1" d="M56.1,328.2v4.6h-2.7l-0.1-1.9h-3.2v12.2l1.9,0.4v2.1h-7.2v-2.1l1.9-0.4v-12.2h-3.2l-0.1,1.9h-2.7v-4.6
						H56.1z"/>
					<path class="st1" d="M61.2,330.3v-2.1h7.2v2.1l-1.9,0.4v12.5l1.9,0.4v2.1h-7.2v-2.1l1.9-0.4v-12.5L61.2,330.3z"/>
					<path class="st1" d="M86.7,328.2v1.7l-8.5,13h6.1l0.3-2.1h2.7l-0.3,4.8h-13v-1.8l8.5-12.9h-5.5l-0.3,2.1H74l0.3-4.8H86.7z"/>
					<path class="st1" d="M92.2,343.5l1.2-0.2l5.3-15.1h3.6l5.3,15.1l1.2,0.2v2.1h-5.9v-2.1l1.2-0.2l-0.8-2.4h-5.6l-0.8,2.4l1.2,0.2
						v2.1h-5.9V343.5z M98.5,338.3h4l-2-6.1h-0.1L98.5,338.3z"/>
					<path class="st1" d="M121.7,328.2c2.1,0,3.9,0.7,5.3,2c1.4,1.4,2.1,3.1,2.1,5.2v2.9c0,2.1-0.7,3.9-2.1,5.2
						c-1.4,1.3-3.1,2-5.3,2h-7.8v-2.1l1.9-0.4v-12.5l-1.9-0.4v-2.1h1.9H121.7z M119.2,330.9v12h2.3c1.2,0,2.2-0.4,2.9-1.3
						c0.7-0.8,1.1-1.9,1.1-3.3v-2.9c0-1.3-0.4-2.4-1.1-3.3c-0.7-0.8-1.7-1.3-2.9-1.3H119.2z"/>
					<path class="st1" d="M150.6,337c0,2.5-0.7,4.7-2.2,6.3c-1.5,1.7-3.4,2.5-5.7,2.5c-2.3,0-4.2-0.8-5.7-2.5
						c-1.4-1.7-2.2-3.8-2.2-6.3v-0.3c0-2.5,0.7-4.6,2.2-6.3c1.4-1.7,3.3-2.5,5.7-2.5c2.4,0,4.3,0.8,5.7,2.5c1.5,1.7,2.2,3.8,2.2,6.3
						V337z M147.2,336.7c0-1.8-0.4-3.3-1.1-4.4c-0.7-1.1-1.9-1.7-3.3-1.7c-1.5,0-2.6,0.6-3.3,1.7c-0.7,1.1-1.1,2.6-1.1,4.4v0.3
						c0,1.8,0.4,3.3,1.1,4.4c0.7,1.1,1.8,1.7,3.3,1.7c1.5,0,2.6-0.6,3.3-1.7c0.7-1.1,1.1-2.6,1.1-4.4V336.7z"/>
				</g>
			</g>
		</g>
	</g>
</g>
<g id="XMLID_33_">
	<g id="XMLID_34_">
		<g id="XMLID_35_">
			<g id="XMLID_67_">
				
					<text id="XMLID_68_" transform="matrix(1 0 0 1 723.9865 362.791)" class="st1" style="font-family:'RobotoSlab-Bold'; font-size:40.7564px; letter-spacing:7;">WIFI</text>
			</g>
		</g>
	</g>
</g>
<path id="XMLID_5_" class="st1" d="M87,233.7c0.3,1.3-0.4,2.6-1.7,2.9l0,0l-10.8,2.9l10.4,6c1.2,0.6,1.6,2.1,0.9,3.3
	c-0.6,1.2-2.1,1.6-3.3,0.9c0,0-0.1,0-0.1,0l-10.3-6l2.9,10.8c0.3,1.3-0.4,2.6-1.7,2.9c0,0,0,0,0,0c-0.2,0.1-0.4,0.1-0.6,0.1
	c-1.1,0-2-0.7-2.3-1.8l-4.1-15.5l-14.8-8.6v17.1l11.3,11.3c0.9,0.9,1,2.4,0,3.4c-0.9,0.9-2.4,1-3.4,0c0,0,0,0,0,0l-7.9-7.9v11.9
	c0,1.3-1.1,2.4-2.4,2.4c-1.3,0-2.4-1.1-2.4-2.4c0,0,0,0,0,0v-11.9l-7.9,7.9c-0.9,0.9-2.5,1-3.4,0c-0.9-0.9-1-2.5,0-3.4c0,0,0,0,0,0
	l11.3-11.3v-17.1l-14.8,8.6l-4.1,15.5c-0.3,1-1.2,1.8-2.3,1.8c-0.2,0-0.4,0-0.6-0.1c-1.3-0.3-2-1.7-1.7-2.9c0,0,0,0,0,0l2.9-10.8
	l-10.3,6c-1.1,0.7-2.6,0.3-3.3-0.8c-0.7-1.1-0.3-2.6,0.8-3.3c0,0,0.1,0,0.1,0l10.3-6l-10.8-2.9c-1.3-0.3-2-1.7-1.7-2.9
	c0.3-1.3,1.7-2,2.9-1.7l15.5,4.2l14.8-8.6L29.4,219l-15.5,4.2c-0.2,0.1-0.4,0.1-0.6,0.1c-1.3,0-2.4-1.1-2.4-2.4c0-1.1,0.7-2,1.8-2.3
	l10.8-2.9l-10.3-6c-1.1-0.7-1.5-2.2-0.8-3.3c0.7-1.1,2.1-1.5,3.2-0.9l10.3,6L23,200.6c-0.4-1.3,0.3-2.6,1.6-3c1.3-0.4,2.6,0.3,3,1.6
	c0,0.1,0,0.1,0,0.2l4.1,15.5l14.8,8.6v-17.1L35.3,195c-0.9-0.9-0.9-2.5,0-3.4c0.9-0.9,2.5-0.9,3.4,0l7.9,7.9v-11.9
	c0-1.3,1.1-2.4,2.4-2.4c1.3,0,2.4,1.1,2.4,2.4c0,0,0,0,0,0v11.9l7.9-7.9c0.9-0.9,2.5-0.9,3.4,0c0.9,0.9,0.9,2.4,0,3.4l-11.3,11.3
	v17.1l14.8-8.6l4.1-15.5c0.3-1.3,1.6-2.1,2.9-1.8c1.3,0.3,2.1,1.6,1.8,2.9c0,0.1,0,0.1,0,0.2l-2.9,10.8l10.3-6
	c1.2-0.6,2.6-0.2,3.3,0.9c0.6,1.1,0.2,2.6-0.9,3.2l-10.3,6l10.8,2.9c1.3,0.3,2,1.7,1.7,2.9c-0.3,1.1-1.2,1.8-2.3,1.8
	c-0.2,0-0.4,0-0.6-0.1L68.6,219l-14.8,8.6l14.8,8.6l15.5-4.2C85.4,231.6,86.7,232.4,87,233.7z"/>
</svg>
