<?xml version="1.0" encoding="utf-8"?>
<!-- Generator: Adobe Illustrator 19.0.0, SVG Export Plug-In . SVG Version: 6.00 Build 0)  -->
<svg version="1.1" id="Layer_1" xmlns="http://www.w3.org/2000/svg" xmlns:xlink="http://www.w3.org/1999/xlink" x="0px" y="0px"
	 viewBox="-99 101 300 300" style="enable-background:new -99 101 300 300;" xml:space="preserve">
<style type="text/css">
	.st0{enable-background:new    ;}
	.st1{fill:#706F6F;}
</style>
<g id="XMLID_36_">
	<g id="XMLID_37_">
		<g id="XMLID_38_">
			<g id="XMLID_69_">
				
					<text id="XMLID_70_" transform="matrix(1 0 0 1 686.8243 316.2332)" class="st1" style="font-family:'RobotoSlab-Bold'; font-size:24.4539px; letter-spacing:3;">WIFI</text>
			</g>
		</g>
	</g>
</g>
<g id="XMLID_1_">
	<g id="XMLID_2_">
		<g id="XMLID_3_">
			<g id="XMLID_8_">
				<g class="st0">
					<path class="st1" d="M-3.6,304.7h-2.6l-0.4-2.3c-0.3-0.3-0.8-0.6-1.3-0.8c-0.5-0.2-1.1-0.3-1.8-0.3c-1.5,0-2.7,0.5-3.5,1.6
						c-0.8,1.1-1.2,2.5-1.2,4.3v0.6c0,1.8,0.4,3.2,1.2,4.3c0.8,1.1,2,1.7,3.4,1.7c0.7,0,1.3-0.1,1.9-0.3c0.6-0.2,1-0.5,1.3-0.8
						l0.4-2.3h2.6v3.4c-0.7,0.8-1.6,1.5-2.7,1.9s-2.3,0.7-3.6,0.7c-2.3,0-4.2-0.8-5.7-2.4c-1.5-1.6-2.2-3.7-2.2-6.2v-0.6
						c0-2.5,0.7-4.6,2.2-6.2s3.4-2.4,5.7-2.4c1.3,0,2.6,0.2,3.6,0.7c1.1,0.5,2,1.1,2.7,1.9V304.7z"/>
					<path class="st1" d="M17.8,307.7c0,2.5-0.7,4.7-2.2,6.3c-1.5,1.7-3.4,2.5-5.7,2.5c-2.3,0-4.2-0.8-5.7-2.5
						c-1.4-1.7-2.2-3.8-2.2-6.3v-0.3c0-2.5,0.7-4.6,2.2-6.3c1.4-1.7,3.3-2.5,5.7-2.5c2.4,0,4.3,0.8,5.7,2.5c1.5,1.7,2.2,3.8,2.2,6.3
						V307.7z M14.4,307.4c0-1.8-0.4-3.3-1.1-4.4c-0.7-1.1-1.9-1.7-3.3-1.7c-1.5,0-2.6,0.6-3.3,1.7c-0.7,1.1-1.1,2.6-1.1,4.4v0.3
						c0,1.8,0.4,3.3,1.1,4.4c0.7,1.1,1.8,1.7,3.3,1.7c1.5,0,2.6-0.6,3.3-1.7c0.7-1.1,1.1-2.6,1.1-4.4V307.4z"/>
					<path class="st1" d="M37.5,304.7h-2.6l-0.4-2.3c-0.3-0.3-0.8-0.6-1.3-0.8c-0.5-0.2-1.1-0.3-1.8-0.3c-1.5,0-2.7,0.5-3.5,1.6
						c-0.8,1.1-1.2,2.5-1.2,4.3v0.6c0,1.8,0.4,3.2,1.2,4.3c0.8,1.1,2,1.7,3.4,1.7c0.7,0,1.3-0.1,1.9-0.3c0.6-0.2,1-0.5,1.3-0.8
						l0.4-2.3h2.6v3.4c-0.7,0.8-1.6,1.5-2.7,1.9s-2.3,0.7-3.6,0.7c-2.3,0-4.2-0.8-5.7-2.4c-1.5-1.6-2.2-3.7-2.2-6.2v-0.6
						c0-2.5,0.7-4.6,2.2-6.2s3.4-2.4,5.7-2.4c1.3,0,2.6,0.2,3.6,0.7c1.1,0.5,2,1.1,2.7,1.9V304.7z"/>
					<path class="st1" d="M43.1,301v-2.1h7.2v2.1l-1.9,0.4v12.5l1.9,0.4v2.1h-7.2v-2.1l1.9-0.4v-12.5L43.1,301z"/>
					<path class="st1" d="M73.3,298.8v2.1l-1.9,0.4v14.9H68l-7-11.7l-0.1,0v9.2l1.9,0.4v2.1h-7.2v-2.1l1.9-0.4v-12.5l-1.9-0.4v-2.1
						h1.9h3.5l7,11.7l0.1,0v-9.2l-1.9-0.4v-2.1h5.3H73.3z"/>
					<path class="st1" d="M76.7,314.1L78,314l5.3-15.1h3.6l5.3,15.1l1.2,0.2v2.1h-5.9v-2.1l1.2-0.2l-0.8-2.4h-5.6l-0.8,2.4l1.2,0.2
						v2.1h-5.9V314.1z M83,309h4l-2-6.1H85L83,309z"/>
					<path class="st1" d="M111.7,304.4H109l-0.5-2.4c-0.3-0.2-0.7-0.4-1.3-0.5s-1.2-0.2-1.9-0.2c-1,0-1.7,0.2-2.2,0.6
						c-0.5,0.4-0.8,0.9-0.8,1.6c0,0.6,0.3,1.1,0.8,1.5c0.5,0.4,1.5,0.8,2.8,1.2c1.9,0.5,3.4,1.2,4.4,2.1c1,0.9,1.5,2,1.5,3.5
						c0,1.5-0.6,2.7-1.8,3.5c-1.2,0.9-2.7,1.3-4.7,1.3c-1.4,0-2.6-0.2-3.7-0.7s-2-1-2.8-1.8v-3.6h2.7l0.4,2.5
						c0.4,0.3,0.8,0.5,1.4,0.7c0.6,0.2,1.3,0.3,2,0.3c1,0,1.7-0.2,2.2-0.6c0.5-0.4,0.7-0.9,0.7-1.6c0-0.7-0.2-1.2-0.7-1.6
						s-1.3-0.8-2.5-1.1c-2.1-0.6-3.6-1.3-4.7-2.1s-1.6-1.9-1.6-3.4c0-1.4,0.6-2.6,1.8-3.5c1.2-0.9,2.7-1.4,4.5-1.4
						c1.3,0,2.6,0.2,3.7,0.6c1.1,0.4,2,0.9,2.8,1.6V304.4z"/>
					<path class="st1" d="M-44.1,330.3l-1.4,0.2l2.7,5.7h0.1l2.7-5.7l-1.4-0.2v-2.1h6.6v2.1l-1.5,0.2l-4.7,8.9v3.7l1.9,0.4v2.1h-7.2
						v-2.1l1.9-0.4v-3.8l-4.6-8.8l-1.5-0.2v-2.1h6.6V330.3z"/>
					<path class="st1" d="M-11.5,328.2c2,0,3.6,0.5,4.7,1.5c1.2,1,1.7,2.4,1.7,4c0,1.7-0.6,3-1.7,4c-1.2,1-2.7,1.5-4.7,1.5h-2.9v3.9
						l1.9,0.4v2.1h-7.2v-2.1l1.9-0.4v-12.5l-1.9-0.4v-2.1h1.9H-11.5z M-14.4,336.6h2.9c1,0,1.7-0.3,2.2-0.8c0.5-0.5,0.7-1.2,0.7-2
						c0-0.8-0.2-1.5-0.7-2.1c-0.5-0.5-1.2-0.8-2.2-0.8h-2.9V336.6z"/>
					<path class="st1" d="M-3,343.5l1.2-0.2l5.3-15.1h3.6l5.3,15.1l1.2,0.2v2.1H7.7v-2.1l1.2-0.2l-0.8-2.4H2.5l-0.8,2.4l1.2,0.2v2.1
						H-3V343.5z M3.3,338.3h4l-2-6.1H5.3L3.3,338.3z"/>
					<path class="st1" d="M26.6,328.2c2,0,3.5,0.5,4.6,1.4c1.1,0.9,1.7,2.2,1.7,3.7c0,0.9-0.2,1.6-0.7,2.3s-1.2,1.2-2.1,1.6
						c1,0.3,1.8,0.8,2.2,1.5c0.4,0.7,0.7,1.6,0.7,2.6v0.9c0,0.4,0.1,0.7,0.2,0.9c0.2,0.2,0.4,0.3,0.8,0.4l0.4,0.1v2.1h-1.8
						c-1.1,0-1.9-0.3-2.4-0.9c-0.5-0.6-0.7-1.4-0.7-2.4v-1c0-0.8-0.2-1.5-0.7-2s-1.1-0.7-1.9-0.8h-2.9v4.6l1.9,0.4v2.1h-7.2v-2.1
						l1.9-0.4v-12.5l-1.9-0.4v-2.1h1.9H26.6z M24.1,335.9h2.4c1,0,1.7-0.2,2.2-0.6c0.5-0.4,0.7-1,0.7-1.8c0-0.8-0.2-1.4-0.7-1.9
						s-1.2-0.7-2.1-0.7h-2.5V335.9z"/>
					<path class="st1" d="M47.4,328.2c2,0,3.5,0.5,4.6,1.4c1.1,0.9,1.7,2.2,1.7,3.7c0,0.9-0.2,1.6-0.7,2.3s-1.2,1.2-2.1,1.6
						c1,0.3,1.8,0.8,2.2,1.5c0.4,0.7,0.7,1.6,0.7,2.6v0.9c0,0.4,0.1,0.7,0.2,0.9c0.2,0.2,0.4,0.3,0.8,0.4l0.4,0.1v2.1h-1.8
						c-1.1,0-1.9-0.3-2.4-0.9c-0.5-0.6-0.7-1.4-0.7-2.4v-1c0-0.8-0.2-1.5-0.7-2s-1.1-0.7-1.9-0.8h-2.9v4.6l1.9,0.4v2.1h-7.2v-2.1
						l1.9-0.4v-12.5l-1.9-0.4v-2.1h1.9H47.4z M44.9,335.9h2.4c1,0,1.7-0.2,2.2-0.6c0.5-0.4,0.7-1,0.7-1.8c0-0.8-0.2-1.4-0.7-1.9
						s-1.2-0.7-2.1-0.7h-2.5V335.9z"/>
					<path class="st1" d="M60.3,330.3v-2.1h7.2v2.1l-1.9,0.4v12.5l1.9,0.4v2.1h-7.2v-2.1l1.9-0.4v-12.5L60.3,330.3z"/>
					<path class="st1" d="M72.8,345.6v-2.1l1.9-0.4v-12.5l-1.9-0.4v-2.1h1.9h3.5H80v2.1l-1.9,0.4v12.3h4.9l0.2-2.2h2.7v4.9H72.8z"/>
					<path class="st1" d="M91.2,345.6v-2.1l1.9-0.4v-12.5l-1.9-0.4v-2.1H93h3.5h1.9v2.1l-1.9,0.4v12.3h4.9l0.2-2.2h2.7v4.9H91.2z"/>
					<path class="st1" d="M109.3,343.5l1.2-0.2l5.3-15.1h3.6l5.3,15.1l1.2,0.2v2.1H120v-2.1l1.2-0.2l-0.8-2.4h-5.6l-0.8,2.4l1.2,0.2
						v2.1h-5.9V343.5z M115.6,338.3h4l-2-6.1h-0.1L115.6,338.3z"/>
					<path class="st1" d="M144.2,333.7h-2.6l-0.5-2.4c-0.3-0.2-0.7-0.4-1.3-0.5s-1.2-0.2-1.9-0.2c-1,0-1.7,0.2-2.2,0.6
						c-0.5,0.4-0.8,0.9-0.8,1.6c0,0.6,0.3,1.1,0.8,1.5c0.5,0.4,1.5,0.8,2.8,1.2c1.9,0.5,3.4,1.2,4.4,2.1c1,0.9,1.5,2,1.5,3.5
						c0,1.5-0.6,2.7-1.8,3.5c-1.2,0.9-2.7,1.3-4.7,1.3c-1.4,0-2.6-0.2-3.7-0.7s-2-1-2.8-1.8v-3.6h2.7l0.4,2.5
						c0.3,0.3,0.8,0.5,1.4,0.7c0.6,0.2,1.3,0.3,2,0.3c1,0,1.7-0.2,2.2-0.6c0.5-0.4,0.7-0.9,0.7-1.6c0-0.7-0.2-1.2-0.7-1.6
						s-1.3-0.8-2.5-1.1c-2.1-0.6-3.6-1.3-4.7-2.1s-1.6-1.9-1.6-3.4c0-1.4,0.6-2.6,1.8-3.5s2.7-1.4,4.5-1.4c1.3,0,2.6,0.2,3.7,0.6
						c1.1,0.4,2,0.9,2.8,1.6V333.7z"/>
				</g>
			</g>
		</g>
	</g>
</g>
<g id="XMLID_33_">
	<g id="XMLID_34_">
		<g id="XMLID_35_">
			<g id="XMLID_67_">
				
					<text id="XMLID_68_" transform="matrix(1 0 0 1 723.9865 362.791)" class="st1" style="font-family:'RobotoSlab-Bold'; font-size:40.7564px; letter-spacing:7;">WIFI</text>
			</g>
		</g>
	</g>
</g>
<g>
	<g>
		<rect x="42.4" y="254.1" class="st1" width="3.3" height="3.3"/>
		<rect x="52.3" y="254.1" class="st1" width="3.3" height="3.3"/>
		<rect x="42.4" y="262.3" class="st1" width="3.3" height="3.3"/>
		<rect x="52.3" y="262.3" class="st1" width="3.3" height="3.3"/>
		<path class="st1" d="M65.2,232.7h-2.5c8.3-6.8,10.2-18.8,4.4-27.8v-13.1c2.8-1.1,4.7-3.8,4.9-6.8c0-4.6-5.1-8.2-11.5-8.2
			c-1.1,0-2.1,0.1-3.2,0.3c-4.4-4.6-11.6-4.8-16.3-0.5c-0.2,0.1-0.3,0.3-0.5,0.5c-1-0.2-2.1-0.3-3.2-0.3c-6.5,0-11.5,3.6-11.5,8.2
			c0.2,3,2.1,5.6,4.9,6.8v13.1c-5.7,9.1-3.8,21,4.4,27.8h-2.5c-13.8,0-25,11.2-25,25v12.9c0,0.9,0.7,1.6,1.6,1.6h79
			c0.9,0,1.6-0.7,1.6-1.6v-12.9C90.2,243.9,79,232.7,65.2,232.7z M58.9,235.2v4.2c-2.9,0.4-5.5,1.6-7.7,3.6
			c-0.8,0.8-1.6,1.6-2.2,2.5c-0.6-0.9-1.4-1.8-2.2-2.5c-2.1-1.9-4.8-3.2-7.7-3.6v-4.2c0.1,0,0.1,0,0.2,0.1c0.7,0.3,1.3,0.6,2,0.9
			c0.1,0,0.3,0.1,0.4,0.1c0.7,0.3,1.5,0.5,2.2,0.7l0,0c3.3,0.8,6.8,0.8,10.1,0l0,0c0.7-0.2,1.5-0.4,2.2-0.7c0.1,0,0.3-0.1,0.4-0.1
			c0.7-0.3,1.4-0.6,2-0.9C58.8,235.3,58.9,235.3,58.9,235.2z M29.3,185c0-2.7,3.8-4.9,8.2-4.9c1.1,0,2.2,0.1,3.3,0.4
			c0.6,0.2,1.3,0,1.7-0.6c2.8-3.6,7.9-4.2,11.5-1.4c0.5,0.4,1,0.9,1.4,1.4c0.4,0.5,1.1,0.7,1.7,0.6c1.1-0.3,2.2-0.4,3.3-0.4
			c4.5,0,8.2,2.3,8.2,4.9c0,1.6-1.5,3.2-3.9,4.2c-0.6,0.2-1.1,0.9-1.1,1.5v14.1h-4.9v-11.5h-3.3v11.5h-4.9v-11.5h-3.3v11.5h-4.9
			v-11.5h-3.3v11.5h-4.9v-14.1c0-0.7-0.4-1.3-1.1-1.5C30.8,188.2,29.3,186.6,29.3,185z M30.9,216.3c0-2.9,0.7-5.7,2-8.2h32.3
			c4.1,8,1.7,17.8-5.7,23c-0.3,0.2-0.6,0.4-0.9,0.6c-0.1,0.1-0.3,0.2-0.4,0.3c-0.3,0.2-0.6,0.3-0.9,0.5c-0.2,0.1-0.4,0.2-0.6,0.3
			c-0.3,0.1-0.5,0.3-0.8,0.4c-0.5,0.2-0.9,0.4-1.4,0.5c-0.2,0.1-0.4,0.1-0.6,0.2c-0.3,0.1-0.7,0.2-1,0.3c-0.2,0-0.4,0.1-0.6,0.1
			c-0.4,0.1-0.7,0.1-1.1,0.2c-0.2,0-0.4,0-0.5,0.1c-0.5,0-1.1,0.1-1.7,0.1s-1.1,0-1.7-0.1c-0.2,0-0.4,0-0.5-0.1
			c-0.4,0-0.7-0.1-1.1-0.2c-0.2,0-0.4-0.1-0.6-0.1c-0.4-0.1-0.7-0.2-1-0.3c-0.2-0.1-0.4-0.1-0.6-0.2c-0.5-0.1-0.9-0.3-1.4-0.5
			c-0.3-0.1-0.5-0.2-0.8-0.4c-0.2-0.1-0.4-0.2-0.6-0.3c-0.3-0.2-0.6-0.3-0.9-0.5c-0.1-0.1-0.3-0.2-0.4-0.3c-0.3-0.2-0.6-0.4-0.9-0.6
			C33.8,227.6,30.9,222.1,30.9,216.3z M11.2,257.7c0-12,9.7-21.7,21.7-21.7h3v4.9c0,0.9,0.7,1.6,1.6,1.6c2.7,0.1,5.2,1.1,7.2,2.9
			c0.7,0.6,1.3,1.3,1.7,2.1h-2.3c-4.5,0-8.2,3.7-8.2,8.2v13.2H11.2V257.7z M86.9,268.9H39.2v-13.2c0-2.7,2.2-4.9,4.9-4.9H49
			c0.7,0,1.3-0.4,1.5-1.1c0.6-1.6,1.6-3.1,2.9-4.3c2-1.8,4.5-2.8,7.2-2.9c0.9,0,1.6-0.8,1.6-1.6V236h3c12,0,21.7,9.7,21.7,21.7
			V268.9z"/>
		<path class="st1" d="M44.3,227.8c1.8-0.2,3.5-1,4.8-2.3c1.3,1.3,3,2.1,4.8,2.3c2.3,0.2,4.5-0.6,6.2-2.1l-2.2-2.4
			c-1,0.9-2.3,1.3-3.7,1.2c-1.5-0.2-2.9-1.1-3.7-2.5c-0.5-0.8-1.6-1-2.4-0.5c-0.2,0.1-0.4,0.3-0.5,0.5c-0.8,1.3-2.1,2.2-3.7,2.4
			c-1.3,0.1-2.7-0.3-3.7-1.2l-2.2,2.4c1.5,1.3,3.4,2.1,5.4,2.1C43.7,227.8,44,227.8,44.3,227.8z"/>
	</g>
</g>
</svg>
