<?xml version="1.0" encoding="utf-8"?>
<!-- Generator: Adobe Illustrator 19.0.0, SVG Export Plug-In . SVG Version: 6.00 Build 0)  -->
<svg version="1.1" id="Layer_1" xmlns="http://www.w3.org/2000/svg" xmlns:xlink="http://www.w3.org/1999/xlink" x="0px" y="0px"
	 viewBox="0 0 300 300" style="enable-background:new 0 0 300 300;" xml:space="preserve">
<style type="text/css">
	.st0{fill:#706F6F;}
</style>
<g id="XMLID_36_">
	<g id="XMLID_37_">
		<g id="XMLID_38_">
			<g id="XMLID_87_">
				
					<text id="XMLID_88_" transform="matrix(1 0 0 1 785.8243 215.2332)" class="st0" style="font-family:'RobotoSlab-Bold'; font-size:24.4539px; letter-spacing:4;">WIFI</text>
			</g>
		</g>
	</g>
</g>
<g id="XMLID_2_">
	<g id="XMLID_3_">
		<g id="XMLID_4_">
			<g id="XMLID_209_">
				<g id="XMLID_210_">
					<path id="XMLID_225_" class="st0" d="M85.6,197.8c2,0,3.6,0.5,4.7,1.5c1.2,1,1.7,2.4,1.7,4c0,1.7-0.6,3-1.7,4
						c-1.2,1-2.7,1.5-4.7,1.5h-2.9v3.9l1.9,0.4v2.1h-7.2v-2.1l1.9-0.4v-12.5l-1.9-0.4v-2.1h1.9H85.6z M82.7,206.2h2.9
						c1,0,1.7-0.3,2.2-0.8c0.5-0.5,0.7-1.2,0.7-2c0-0.8-0.2-1.5-0.7-2.1c-0.5-0.5-1.2-0.8-2.2-0.8h-2.9V206.2z"/>
					<path id="XMLID_222_" class="st0" d="M95.1,213.1l1.2-0.2l5.3-15.1h3.6l5.3,15.1l1.2,0.2v2.1h-5.9v-2.1l1.2-0.2l-0.8-2.4h-5.6
						l-0.8,2.4l1.2,0.2v2.1h-5.9V213.1z M101.4,208h4l-2-6.1h-0.1L101.4,208z"/>
					<path id="XMLID_219_" class="st0" d="M125.5,197.8c2,0,3.5,0.5,4.6,1.4c1.1,0.9,1.7,2.2,1.7,3.7c0,0.9-0.2,1.6-0.7,2.3
						s-1.2,1.2-2.1,1.6c1,0.3,1.8,0.8,2.2,1.5c0.4,0.7,0.7,1.6,0.7,2.6v0.9c0,0.4,0.1,0.7,0.2,0.9c0.2,0.2,0.4,0.3,0.8,0.4l0.4,0.1
						v2.1h-1.8c-1.1,0-1.9-0.3-2.4-0.9c-0.5-0.6-0.7-1.4-0.7-2.4v-1c0-0.8-0.2-1.5-0.7-2s-1.1-0.7-1.9-0.8H123v4.6l1.9,0.4v2.1h-7.2
						v-2.1l1.9-0.4v-12.5l-1.9-0.4v-2.1h1.9H125.5z M123,205.5h2.4c1,0,1.7-0.2,2.2-0.6c0.5-0.4,0.7-1,0.7-1.8
						c0-0.8-0.2-1.4-0.7-1.9s-1.2-0.7-2.1-0.7H123V205.5z"/>
					<path id="XMLID_217_" class="st0" d="M139.4,213.1l1.9-0.4v-12.5l-1.9-0.4v-2.1h7.1v2.1l-1.8,0.4v4.6h1.5l3.3-4.9l-1-0.1v-2.1
						h6.9v2.1l-1.9,0.3l-4.3,5.7l4.8,6.9l1.7,0.3v2.1H149v-2.1l1.1-0.1l-3.3-5h-1.9v4.8l1.8,0.4v2.1h-7.1V213.1z"/>
					<path id="XMLID_215_" class="st0" d="M161.8,200v-2.1h7.2v2.1l-1.9,0.4v12.5l1.9,0.4v2.1h-7.2v-2.1l1.9-0.4v-12.5L161.8,200z"
						/>
					<path id="XMLID_213_" class="st0" d="M192.9,197.8v2.1l-1.9,0.4v14.9h-3.5l-7-11.7l-0.1,0v9.2l1.9,0.4v2.1h-7.2v-2.1l1.9-0.4
						v-12.5l-1.9-0.4v-2.1h1.9h3.5l7,11.7l0.1,0v-9.2l-1.9-0.4v-2.1h5.3H192.9z"/>
					<path id="XMLID_211_" class="st0" d="M213.4,213.3c-0.6,0.6-1.4,1.1-2.5,1.5c-1.1,0.4-2.5,0.7-4.1,0.7c-2.3,0-4.3-0.8-5.7-2.4
						s-2.2-3.6-2.2-6.1v-0.6c0-2.6,0.7-4.7,2.2-6.4s3.3-2.4,5.7-2.4c1.4,0,2.6,0.2,3.7,0.7c1.1,0.4,2.1,1,2.8,1.8v3.5h-2.6l-0.5-2.3
						c-0.3-0.3-0.7-0.5-1.3-0.7s-1.1-0.2-1.8-0.2c-1.5,0-2.7,0.6-3.5,1.7s-1.3,2.6-1.3,4.4v0.6c0,1.8,0.4,3.2,1.2,4.2s2,1.6,3.6,1.6
						c0.7,0,1.3-0.1,1.7-0.2c0.4-0.1,0.8-0.3,1-0.4v-2.9l-2.5-0.2v-2.4h6V213.3z"/>
				</g>
			</g>
		</g>
	</g>
</g>
<g id="XMLID_33_">
	<g id="XMLID_34_">
		<g id="XMLID_35_">
			<g id="XMLID_85_">
				
					<text id="XMLID_86_" transform="matrix(1 0 0 1 822.9865 261.791)" class="st0" style="font-family:'RobotoSlab-Bold'; font-size:40.7564px; letter-spacing:8;">WIFI</text>
			</g>
		</g>
	</g>
</g>
<path id="XMLID_49_" class="st0" d="M148,65.8c-30.8,0-55.9,25-55.9,55.9s25,55.9,55.9,55.9c27.2,0,49.9-19.4,54.9-45.2
	c0.3-1.4-0.6-2.7-2-3c-1.4-0.3-2.7,0.6-3,2c-4.5,23.4-25.1,41.1-49.9,41.1c-28.1,0-50.8-22.7-50.8-50.8s22.7-50.8,50.8-50.8
	s50.8,22.7,50.8,50.8c0,1.4,1.2,2.5,2.6,2.5c1.4,0,2.4-1.1,2.5-2.5C203.9,90.8,178.8,65.8,148,65.8z M148,76
	c-25.2,0-45.7,20.5-45.7,45.7s20.5,45.7,45.7,45.7s45.7-20.5,45.7-45.7S173.2,76,148,76z M148,81c22.5,0,40.6,18.2,40.6,40.6
	s-18.2,40.6-40.6,40.6s-40.6-18.2-40.6-40.6S125.5,81,148,81z M130,93.7c-0.9,0.1-1.7,0.7-2.1,1.5l-7.3,17.1c-2.6,2-4.3,5.1-4.3,8.5
	v14.7c0,1.4,1.1,2.5,2.5,2.5h2.5v6.3c0,1.4,1.1,2.5,2.5,2.5H134c1.4,0,2.5-1.1,2.5-2.5v-6.3h22.9v6.3c0,1.4,1.1,2.5,2.5,2.5h10.2
	c1.4,0,2.5-1.1,2.5-2.5v-6.3h2.5c1.4,0,2.5-1.1,2.5-2.5V121c0-3.5-1.7-6.6-4.3-8.5l-7.3-17.1c-0.4-0.9-1.3-1.5-2.3-1.5h-35.6
	C130.2,93.7,130.1,93.7,130,93.7z M131.9,98.8h32.2l4.9,11.4h-42L131.9,98.8z M127,115.3H169c3.2,0,5.6,2.5,5.6,5.6v12.1h-53.3V121
	C121.3,117.8,123.8,115.3,127,115.3z M131.5,119.1c-2.8,0-5.1,2.3-5.1,5.1s2.3,5.1,5.1,5.1s5.1-2.3,5.1-5.1S134.3,119.1,131.5,119.1
	z M164.5,119.1c-2.8,0-5.1,2.3-5.1,5.1s2.3,5.1,5.1,5.1s5.1-2.3,5.1-5.1S167.3,119.1,164.5,119.1z M126.4,138.2h5.1v3.8h-5.1V138.2z
	 M164.5,138.2h5.1v3.8h-5.1V138.2z"/>
</svg>
