<?xml version="1.0" encoding="utf-8"?>
<!-- Generator: Adobe Illustrator 19.0.0, SVG Export Plug-In . SVG Version: 6.00 Build 0)  -->
<svg version="1.1" id="Layer_1" xmlns="http://www.w3.org/2000/svg" xmlns:xlink="http://www.w3.org/1999/xlink" x="0px" y="0px"
	 viewBox="-99 101 300 300" style="enable-background:new -99 101 300 300;" xml:space="preserve">
<style type="text/css">
	.st0{enable-background:new    ;}
	.st1{fill:#706F6F;}
</style>
<g id="XMLID_36_">
	<g id="XMLID_37_">
		<g id="XMLID_38_">
			<g id="XMLID_69_">
				
					<text id="XMLID_70_" transform="matrix(1 0 0 1 686.8243 316.2332)" class="st1" style="font-family:'RobotoSlab-Bold'; font-size:24.4539px; letter-spacing:3;">WIFI</text>
			</g>
		</g>
	</g>
</g>
<g id="XMLID_5_">
	<g id="XMLID_23_">
		<g id="XMLID_24_">
			<g id="XMLID_25_">
				<g class="st0">
					<path class="st1" d="M-55.4,303.4L-55.4,303.4l-4.7,12.9h-2.3l-4.6-12.8l-0.1,0l0.3,7.6v2.7l1.9,0.4v2.1h-7.2v-2.1l1.9-0.4
						v-12.5l-1.9-0.4v-2.1h1.9h4.5l4.4,12.8h0.1l4.5-12.8h6.4v2.1l-1.9,0.4v12.5l1.9,0.4v2.1h-7.2v-2.1l1.9-0.4v-2.7L-55.4,303.4z"
						/>
					<path class="st1" d="M-45.4,314.1l1.2-0.2l5.3-15.1h3.6L-30,314l1.2,0.2v2.1h-5.9v-2.1l1.2-0.2l-0.8-2.4h-5.6l-0.8,2.4l1.2,0.2
						v2.1h-5.9V314.1z M-36.9,294.4h3.7l0,0.1l-3.3,3.1h-2.8L-36.9,294.4z M-39.1,309h4l-2-6.1h-0.1L-39.1,309z"/>
					<path class="st1" d="M-10.4,304.4H-13l-0.5-2.4c-0.3-0.2-0.7-0.4-1.3-0.5s-1.2-0.2-1.9-0.2c-1,0-1.7,0.2-2.2,0.6
						c-0.5,0.4-0.8,0.9-0.8,1.6c0,0.6,0.3,1.1,0.8,1.5s1.5,0.8,2.8,1.2c1.9,0.5,3.4,1.2,4.4,2.1c1,0.9,1.5,2,1.5,3.5
						c0,1.5-0.6,2.7-1.8,3.5c-1.2,0.9-2.7,1.3-4.7,1.3c-1.4,0-2.6-0.2-3.7-0.7s-2-1-2.8-1.8v-3.6h2.7l0.4,2.5
						c0.4,0.3,0.8,0.5,1.4,0.7c0.6,0.2,1.3,0.3,2,0.3c1,0,1.7-0.2,2.2-0.6c0.5-0.4,0.7-0.9,0.7-1.6c0-0.7-0.2-1.2-0.7-1.6
						s-1.3-0.8-2.5-1.1c-2.1-0.6-3.6-1.3-4.7-2.1s-1.6-1.9-1.6-3.4c0-1.4,0.6-2.6,1.8-3.5c1.2-0.9,2.7-1.4,4.5-1.4
						c1.3,0,2.6,0.2,3.7,0.6c1.1,0.4,2,0.9,2.8,1.6V304.4z"/>
					<path class="st1" d="M13,298.8c2.1,0,3.9,0.7,5.3,2c1.4,1.4,2.1,3.1,2.1,5.2v2.9c0,2.1-0.7,3.9-2.1,5.2c-1.4,1.3-3.1,2-5.3,2
						H5.2v-2.1l1.9-0.4v-12.5L5.2,301v-2.1H7H13z M10.5,301.5v12h2.3c1.2,0,2.2-0.4,2.9-1.3c0.7-0.8,1.1-1.9,1.1-3.3v-2.9
						c0-1.3-0.4-2.4-1.1-3.3c-0.7-0.8-1.7-1.3-2.9-1.3H10.5z"/>
					<path class="st1" d="M37.2,308.6h-5.9v5h5.6l0.2-2.1h2.7v4.8H26v-2.1l1.9-0.4v-12.5L26,301v-2.1h1.9h11.9v4.8H37l-0.2-2.1h-5.6
						v4.4h5.9V308.6z"/>
					<path class="st1" d="M63,298.6c0.7,0,1.3,0.1,1.8,0.2c0.6,0.1,1.1,0.3,1.7,0.5l-0.6,2.5c-0.5-0.2-1-0.3-1.4-0.4
						c-0.4-0.1-0.9-0.1-1.5-0.1c-1,0-1.9,0.4-2.5,1.1c-0.6,0.8-0.9,1.9-0.9,3.3l0,0.1c0.4-0.4,0.9-0.7,1.5-1c0.6-0.2,1.3-0.3,2-0.3
						c1.6,0,2.8,0.6,3.7,1.7s1.3,2.5,1.3,4.2c0,1.8-0.5,3.2-1.6,4.3c-1.1,1.1-2.5,1.7-4.2,1.7c-1.8,0-3.3-0.6-4.5-1.9
						c-1.2-1.2-1.7-3-1.7-5.2v-3.1c0-2.5,0.7-4.4,2-5.7S60.9,298.6,63,298.6z M62.2,307.2c-0.6,0-1.2,0.1-1.6,0.3s-0.8,0.5-1.1,0.8
						v1.2c0,1.4,0.2,2.4,0.7,3.2s1.2,1.1,2,1.1c0.7,0,1.3-0.3,1.7-1c0.4-0.7,0.7-1.5,0.7-2.4c0-1-0.2-1.7-0.7-2.3
						C63.5,307.5,62.9,307.2,62.2,307.2z"/>
					<path class="st1" d="M85.5,309.5c0,2.3-0.5,4-1.6,5.2s-2.5,1.8-4.3,1.8c-1.8,0-3.3-0.6-4.3-1.8s-1.6-2.9-1.6-5.2v-3.8
						c0-2.3,0.5-4,1.6-5.2s2.5-1.8,4.3-1.8c1.8,0,3.2,0.6,4.3,1.8c1.1,1.2,1.6,2.9,1.6,5.2V309.5z M82,305.3c0-1.4-0.2-2.4-0.6-3
						s-1-1-1.8-1c-0.8,0-1.4,0.3-1.8,1s-0.6,1.6-0.6,3v4.5c0,1.4,0.2,2.4,0.6,3.1s1,1,1.8,1c0.8,0,1.4-0.3,1.8-1s0.6-1.7,0.6-3.1
						V305.3z"/>
					<path class="st1" d="M103.4,309.5c0,2.3-0.5,4-1.6,5.2s-2.5,1.8-4.3,1.8c-1.8,0-3.3-0.6-4.3-1.8s-1.6-2.9-1.6-5.2v-3.8
						c0-2.3,0.5-4,1.6-5.2s2.5-1.8,4.3-1.8c1.8,0,3.2,0.6,4.3,1.8s1.6,2.9,1.6,5.2V309.5z M100,305.3c0-1.4-0.2-2.4-0.6-3
						c-0.4-0.6-1-1-1.8-1c-0.8,0-1.4,0.3-1.8,1c-0.4,0.6-0.6,1.6-0.6,3v4.5c0,1.4,0.2,2.4,0.6,3.1c0.4,0.6,1,1,1.8,1
						c0.8,0,1.4-0.3,1.8-1c0.4-0.6,0.6-1.7,0.6-3.1V305.3z"/>
					<path class="st1" d="M121.4,309.5c0,2.3-0.5,4-1.6,5.2s-2.5,1.8-4.3,1.8c-1.8,0-3.3-0.6-4.3-1.8s-1.6-2.9-1.6-5.2v-3.8
						c0-2.3,0.5-4,1.6-5.2s2.5-1.8,4.3-1.8c1.8,0,3.2,0.6,4.3,1.8s1.6,2.9,1.6,5.2V309.5z M117.9,305.3c0-1.4-0.2-2.4-0.6-3
						c-0.4-0.6-1-1-1.8-1c-0.8,0-1.4,0.3-1.8,1c-0.4,0.6-0.6,1.6-0.6,3v4.5c0,1.4,0.2,2.4,0.6,3.1c0.4,0.6,1,1,1.8,1
						c0.8,0,1.4-0.3,1.8-1c0.4-0.6,0.6-1.7,0.6-3.1V305.3z"/>
					<path class="st1" d="M143.9,303.4L143.9,303.4l-4.7,12.9h-2.3l-4.6-12.8l-0.1,0l0.3,7.6v2.7l1.9,0.4v2.1h-7.2v-2.1l1.9-0.4
						v-12.5l-1.9-0.4v-2.1h1.9h4.5l4.4,12.8h0.1l4.5-12.8h6.4v2.1l-1.9,0.4v12.5l1.9,0.4v2.1h-7.2v-2.1l1.9-0.4v-2.7L143.9,303.4z"
						/>
					<path class="st1" d="M154.3,316.2V314l5.6-6c0.8-0.9,1.4-1.7,1.7-2.4c0.3-0.6,0.5-1.2,0.5-1.8c0-0.7-0.2-1.3-0.6-1.8
						c-0.4-0.5-1-0.7-1.7-0.7c-0.8,0-1.4,0.3-1.8,0.8c-0.4,0.5-0.6,1.3-0.6,2.2h-3.4l0-0.1c0-1.6,0.5-2.9,1.5-4
						c1.1-1.1,2.5-1.6,4.3-1.6c1.8,0,3.2,0.5,4.2,1.4c1,0.9,1.5,2.2,1.5,3.7c0,1.1-0.3,2-0.9,2.9s-1.5,2.1-2.9,3.5l-3.1,3.4l0,0.1
						h4.5l0.1-1.7h2.7v4.4H154.3z"/>
					<path class="st1" d="M-29,328.2c2.1,0,3.9,0.7,5.3,2c1.4,1.4,2.1,3.1,2.1,5.2v2.9c0,2.1-0.7,3.9-2.1,5.2c-1.4,1.3-3.1,2-5.3,2
						h-7.8v-2.1l1.9-0.4v-12.5l-1.9-0.4v-2.1h1.9H-29z M-31.5,330.9v12h2.3c1.2,0,2.2-0.4,2.9-1.3c0.7-0.8,1.1-1.9,1.1-3.3v-2.9
						c0-1.3-0.4-2.4-1.1-3.3c-0.7-0.8-1.7-1.3-2.9-1.3H-31.5z"/>
					<path class="st1" d="M-4.8,337.9h-5.9v5h5.6l0.2-2.1h2.7v4.8H-16v-2.1l1.9-0.4v-12.5l-1.9-0.4v-2.1h1.9h11.9v4.8H-5l-0.2-2.1
						h-5.6v4.4h5.9V337.9z"/>
					<path class="st1" d="M21.8,328.2c2,0,3.6,0.5,4.7,1.5c1.2,1,1.7,2.4,1.7,4c0,1.7-0.6,3-1.7,4c-1.2,1-2.7,1.5-4.7,1.5h-2.9v3.9
						l1.9,0.4v2.1h-7.2v-2.1l1.9-0.4v-12.5l-1.9-0.4v-2.1h1.9H21.8z M18.9,336.6h2.9c1,0,1.7-0.3,2.2-0.8c0.5-0.5,0.7-1.2,0.7-2
						c0-0.8-0.2-1.5-0.7-2.1c-0.5-0.5-1.2-0.8-2.2-0.8h-2.9V336.6z"/>
					<path class="st1" d="M30.4,343.5l1.2-0.2l5.3-15.1h3.6l5.3,15.1l1.2,0.2v2.1H41v-2.1l1.2-0.2l-0.8-2.4h-5.6l-0.8,2.4l1.2,0.2
						v2.1h-5.9V343.5z M36.7,338.3h4l-2-6.1h-0.1L36.7,338.3z"/>
					<path class="st1" d="M59.9,328.2c2,0,3.5,0.5,4.6,1.4c1.1,0.9,1.7,2.2,1.7,3.7c0,0.9-0.2,1.6-0.7,2.3s-1.2,1.2-2.1,1.6
						c1,0.3,1.8,0.8,2.2,1.5c0.4,0.7,0.7,1.6,0.7,2.6v0.9c0,0.4,0.1,0.7,0.2,0.9c0.2,0.2,0.4,0.3,0.8,0.4l0.4,0.1v2.1H66
						c-1.1,0-1.9-0.3-2.4-0.9c-0.5-0.6-0.7-1.4-0.7-2.4v-1c0-0.8-0.2-1.5-0.7-2c-0.4-0.5-1.1-0.7-1.9-0.8h-2.9v4.6l1.9,0.4v2.1h-7.2
						v-2.1l1.9-0.4v-12.5l-1.9-0.4v-2.1H54H59.9z M57.4,335.9h2.4c1,0,1.7-0.2,2.2-0.6c0.5-0.4,0.7-1,0.7-1.8c0-0.8-0.2-1.4-0.7-1.9
						s-1.2-0.7-2.1-0.7h-2.5V335.9z"/>
					<path class="st1" d="M88.8,337c0,1.5-0.3,2.9-0.8,4.1c-0.5,1.2-1.3,2.3-2.3,3.1l3.7,2.3l-2.5,1.9l-4.2-2.8
						c-0.3,0.1-0.6,0.1-0.9,0.2c-0.3,0-0.6,0.1-0.9,0.1c-2.3,0-4.2-0.8-5.7-2.5c-1.4-1.7-2.2-3.8-2.2-6.3v-0.3
						c0-2.5,0.7-4.6,2.2-6.3c1.4-1.7,3.3-2.5,5.7-2.5c2.4,0,4.3,0.8,5.7,2.5c1.5,1.7,2.2,3.8,2.2,6.3V337z M85.3,336.7
						c0-1.8-0.4-3.3-1.1-4.4c-0.7-1.1-1.9-1.7-3.3-1.7c-1.5,0-2.6,0.6-3.3,1.7c-0.7,1.1-1.1,2.6-1.1,4.4v0.3c0,1.8,0.4,3.3,1.1,4.4
						c0.7,1.1,1.8,1.7,3.3,1.7c1.5,0,2.6-0.6,3.3-1.7c0.7-1.1,1.1-2.6,1.1-4.4V336.7z"/>
					<path class="st1" d="M101.2,328.2v2.1l-1.9,0.4v9.1c0,1.1,0.3,2,0.9,2.6c0.6,0.6,1.5,0.9,2.5,0.9c1.1,0,1.9-0.3,2.6-0.8
						c0.6-0.6,0.9-1.4,0.9-2.6v-9.1l-1.9-0.4v-2.1h7.2v2.1l-1.9,0.4v9.1c0,2-0.6,3.5-1.9,4.5c-1.3,1.1-3,1.6-5.1,1.6
						c-2.1,0-3.8-0.5-5-1.6s-1.9-2.6-1.9-4.5v-9.1l-1.9-0.4v-2.1h1.9h3.5H101.2z"/>
					<path class="st1" d="M127.9,337.9H122v5h5.6l0.2-2.1h2.7v4.8h-13.8v-2.1l1.9-0.4v-12.5l-1.9-0.4v-2.1h1.9h11.9v4.8h-2.7
						l-0.2-2.1H122v4.4h5.9V337.9z"/>
				</g>
			</g>
		</g>
	</g>
</g>
<g id="XMLID_33_">
	<g id="XMLID_34_">
		<g id="XMLID_35_">
			<g id="XMLID_67_">
				
					<text id="XMLID_68_" transform="matrix(1 0 0 1 723.9865 362.791)" class="st1" style="font-family:'RobotoSlab-Bold'; font-size:40.7564px; letter-spacing:7;">WIFI</text>
			</g>
		</g>
	</g>
</g>
<g id="XMLID_6_">
	<path id="XMLID_12_" class="st1" d="M84.5,266.6v-21.4c8.2-1.8,14.4-16.5,14.4-35c0-19.7-7.1-35.2-16.1-35.2
		c-9,0-16.1,15.5-16.1,35.2c0,18.5,6.2,33.2,14.4,35v21.4H64.4v-7.1h4v-3.4H31.4v3.4h4.9v7.1H17v-21.4c8.2-1.8,14.4-16.5,14.4-35
		c0-19.7-7.1-35.2-16.1-35.2c-9,0-16.1,15.5-16.1,35.2c0,18.5,6.2,33.2,14.4,35v21.4H-1.6v3.4H99.7v-3.4H84.5z M17,241.7v-12.8
		l10.3-7.6C25.5,232.6,21.3,240.1,17,241.7z M28,210.2c0,2.3-0.1,4.4-0.3,6.5l-10.8,8v-15.3l10.6-7.7C27.9,204.4,28,207.2,28,210.2z
		 M13.6,241.7C8,239.6,2.5,227.5,2.5,210.2c0,0,0,0,0,0l11.1,8.3V241.7z M13.6,214.2l-11-8.2c0.9-16.7,6.9-27.6,12.6-27.6
		c4.7,0,9.7,7.5,11.8,19.5L17,205.3v-7.9h-3.4V214.2z M61,266.6H39.6v-7.1H61V266.6z M84.5,241.7v-12.8l10.3-7.6
		C93,232.6,88.8,240.1,84.5,241.7z M95.5,210.2c0,2.3-0.1,4.4-0.3,6.5l-10.8,8v-15.3l10.6-7.7C95.4,204.4,95.5,207.2,95.5,210.2z
		 M81.1,241.7c-5.6-2.1-11.1-14.2-11.1-31.5c0,0,0,0,0,0l11.1,8.3V241.7z M81.1,214.2l-11-8.2c0.9-16.7,6.9-27.6,12.6-27.6
		c4.7,0,9.7,7.5,11.8,19.5l-10.1,7.3v-7.9h-3.4V214.2z"/>
	<rect id="XMLID_11_" x="13.6" y="188.4" class="st1" width="3.4" height="5.6"/>
	<rect id="XMLID_10_" x="81.1" y="188.4" class="st1" width="3.4" height="5.6"/>
	<path id="XMLID_9_" class="st1" d="M42.2,186.2c0.3,0.2,0.6,0.3,0.9,0.3c0.6,0,1.1-0.3,1.4-0.8c0,0,0.9-1.4,3.1-0.9
		c0.6,0.1,1.2-0.1,1.6-0.5c0.4-0.4,0.6-1,0.4-1.6c0,0-0.6-2.8,0.8-4.2c0.7-0.7,0.7-1.7,0-2.4c-0.7-0.7-1.7-0.7-2.4,0
		c-1.6,1.6-1.9,3.6-1.9,5.2c-2.3,0.2-3.8,1.6-4.4,2.6C41.2,184.7,41.4,185.7,42.2,186.2z"/>
	<path id="XMLID_8_" class="st1" d="M54,185.4c0.3,0.2,0.6,0.3,0.9,0.3c0.5,0,1.1-0.3,1.4-0.7c0.1-0.2,0.7-0.9,2.2-0.6
		c0.6,0.1,1.2,0,1.6-0.5s0.6-1,0.4-1.6c0,0-0.4-2.1,0.6-3.1c0.7-0.7,0.7-1.7,0-2.4c-0.7-0.7-1.7-0.7-2.4,0c-1.2,1.2-1.6,2.8-1.6,4.1
		c-1.9,0.3-3.1,1.4-3.6,2.2C53,183.9,53.3,184.9,54,185.4z"/>
	<rect id="XMLID_7_" x="31.4" y="248.2" class="st1" width="36.9" height="3.4"/>
</g>
</svg>
