<?xml version="1.0" encoding="utf-8"?>
<!-- Generator: Adobe Illustrator 19.0.0, SVG Export Plug-In . SVG Version: 6.00 Build 0)  -->
<svg version="1.1" id="Layer_1" xmlns="http://www.w3.org/2000/svg" xmlns:xlink="http://www.w3.org/1999/xlink" x="0px" y="0px"
	 viewBox="-99 101 300 300" style="enable-background:new -99 101 300 300;" xml:space="preserve">
<style type="text/css">
	.st0{enable-background:new    ;}
	.st1{fill:#706F6F;}
</style>
<g id="XMLID_36_">
	<g id="XMLID_37_">
		<g id="XMLID_38_">
			<g id="XMLID_69_">
				
					<text id="XMLID_70_" transform="matrix(1 0 0 1 686.8243 316.2332)" class="st1" style="font-family:'RobotoSlab-Bold'; font-size:24.4539px; letter-spacing:3;">WIFI</text>
			</g>
		</g>
	</g>
</g>
<g id="XMLID_4_">
	<g id="XMLID_5_">
		<g id="XMLID_6_">
			<g id="XMLID_7_">
				<g class="st0">
					<path class="st1" d="M-58.7,314.3c-0.6,0.6-1.4,1.1-2.5,1.5s-2.5,0.7-4.1,0.7c-2.3,0-4.3-0.8-5.7-2.4s-2.2-3.6-2.2-6.1v-0.6
						c0-2.6,0.7-4.7,2.2-6.4s3.3-2.4,5.7-2.4c1.4,0,2.6,0.2,3.7,0.7c1.1,0.4,2.1,1,2.8,1.8v3.5h-2.6l-0.5-2.3
						c-0.3-0.3-0.7-0.5-1.3-0.7c-0.5-0.2-1.1-0.2-1.8-0.2c-1.5,0-2.7,0.6-3.5,1.7c-0.8,1.1-1.3,2.6-1.3,4.4v0.6
						c0,1.8,0.4,3.2,1.2,4.2c0.8,1.1,2,1.6,3.6,1.6c0.7,0,1.3-0.1,1.7-0.2c0.4-0.1,0.8-0.3,1-0.4v-2.9l-2.5-0.2v-2.4h6V314.3z"/>
					<path class="st1" d="M-46,298.8v2.1l-1.9,0.4v9.1c0,1.1,0.3,2,0.9,2.6c0.6,0.6,1.5,0.9,2.5,0.9c1.1,0,1.9-0.3,2.6-0.8
						c0.6-0.6,0.9-1.4,0.9-2.6v-9.1l-1.9-0.4v-2.1h7.2v2.1l-1.9,0.4v9.1c0,2-0.6,3.5-1.9,4.5s-3,1.6-5.1,1.6c-2.1,0-3.8-0.5-5-1.6
						c-1.3-1.1-1.9-2.6-1.9-4.5v-9.1l-1.9-0.4v-2.1h1.9h3.5H-46z"/>
					<path class="st1" d="M-31.9,314.1l1.2-0.2l5.3-15.1h3.6l5.3,15.1l1.2,0.2v2.1h-5.9v-2.1l1.2-0.2l-0.8-2.4h-5.6l-0.8,2.4
						l1.2,0.2v2.1h-5.9V314.1z M-25.6,309h4l-2-6.1h-0.1L-25.6,309z"/>
					<path class="st1" d="M-2.4,298.8c2,0,3.5,0.5,4.6,1.4c1.1,0.9,1.7,2.2,1.7,3.7c0,0.9-0.2,1.6-0.7,2.3s-1.2,1.2-2.1,1.6
						c1,0.3,1.8,0.8,2.2,1.5c0.4,0.7,0.7,1.6,0.7,2.6v0.9c0,0.4,0.1,0.7,0.2,0.9c0.2,0.2,0.4,0.3,0.8,0.4l0.4,0.1v2.1H3.7
						c-1.1,0-1.9-0.3-2.4-0.9c-0.5-0.6-0.7-1.4-0.7-2.4v-1c0-0.8-0.2-1.5-0.7-2s-1.1-0.7-1.9-0.8h-2.9v4.6l1.9,0.4v2.1h-7.2v-2.1
						l1.9-0.4v-12.5l-1.9-0.4v-2.1h1.9H-2.4z M-4.8,306.5h2.4c1,0,1.7-0.2,2.2-0.6c0.5-0.4,0.7-1,0.7-1.8c0-0.8-0.2-1.4-0.7-1.9
						s-1.2-0.7-2.1-0.7h-2.5V306.5z"/>
					<path class="st1" d="M18.5,298.8c2.1,0,3.9,0.7,5.3,2c1.4,1.4,2.1,3.1,2.1,5.2v2.9c0,2.1-0.7,3.9-2.1,5.2c-1.4,1.3-3.1,2-5.3,2
						h-7.8v-2.1l1.9-0.4v-12.5l-1.9-0.4v-2.1h1.9H18.5z M16,301.5v12h2.3c1.2,0,2.2-0.4,2.9-1.3c0.7-0.8,1.1-1.9,1.1-3.3v-2.9
						c0-1.3-0.4-2.4-1.1-3.3c-0.7-0.8-1.7-1.3-2.9-1.3H16z"/>
					<path class="st1" d="M30.6,314.1l1.2-0.2l5.3-15.1h3.6l5.3,15.1l1.2,0.2v2.1h-5.9v-2.1l1.2-0.2l-0.8-2.4H36l-0.8,2.4l1.2,0.2
						v2.1h-5.9V314.1z M36.9,309h4l-2-6.1h-0.1L36.9,309z"/>
					<path class="st1" d="M60.1,298.8c2,0,3.5,0.5,4.6,1.4c1.1,0.9,1.7,2.2,1.7,3.7c0,0.9-0.2,1.6-0.7,2.3s-1.2,1.2-2.1,1.6
						c1,0.3,1.8,0.8,2.2,1.5c0.4,0.7,0.7,1.6,0.7,2.6v0.9c0,0.4,0.1,0.7,0.2,0.9c0.2,0.2,0.4,0.3,0.8,0.4l0.4,0.1v2.1h-1.8
						c-1.1,0-1.9-0.3-2.4-0.9c-0.5-0.6-0.7-1.4-0.7-2.4v-1c0-0.8-0.2-1.5-0.7-2c-0.4-0.5-1.1-0.7-1.9-0.8h-2.9v4.6l1.9,0.4v2.1h-7.2
						v-2.1l1.9-0.4v-12.5l-1.9-0.4v-2.1h1.9H60.1z M57.6,306.5H60c1,0,1.7-0.2,2.2-0.6c0.5-0.4,0.7-1,0.7-1.8c0-0.8-0.2-1.4-0.7-1.9
						s-1.2-0.7-2.1-0.7h-2.5V306.5z"/>
					<path class="st1" d="M80.9,298.8c2,0,3.5,0.5,4.6,1.4c1.1,0.9,1.7,2.2,1.7,3.7c0,0.9-0.2,1.6-0.7,2.3s-1.2,1.2-2.1,1.6
						c1,0.3,1.8,0.8,2.2,1.5c0.5,0.7,0.7,1.6,0.7,2.6v0.9c0,0.4,0.1,0.7,0.2,0.9s0.4,0.3,0.8,0.4l0.4,0.1v2.1H87
						c-1.1,0-1.9-0.3-2.4-0.9c-0.5-0.6-0.7-1.4-0.7-2.4v-1c0-0.8-0.2-1.5-0.7-2c-0.5-0.5-1.1-0.7-1.9-0.8h-2.9v4.6l1.9,0.4v2.1h-7.2
						v-2.1l1.9-0.4v-12.5l-1.9-0.4v-2.1h1.9H80.9z M78.4,306.5h2.4c1,0,1.7-0.2,2.2-0.6c0.5-0.4,0.7-1,0.7-1.8
						c0-0.8-0.2-1.4-0.7-1.9s-1.2-0.7-2.1-0.7h-2.5V306.5z"/>
					<path class="st1" d="M109.8,307.7c0,2.5-0.7,4.7-2.2,6.3c-1.5,1.7-3.4,2.5-5.7,2.5c-2.3,0-4.2-0.8-5.7-2.5
						c-1.4-1.7-2.2-3.8-2.2-6.3v-0.3c0-2.5,0.7-4.6,2.2-6.3c1.4-1.7,3.3-2.5,5.7-2.5c2.4,0,4.3,0.8,5.7,2.5c1.5,1.7,2.2,3.8,2.2,6.3
						V307.7z M106.3,307.4c0-1.8-0.4-3.3-1.1-4.4c-0.7-1.1-1.9-1.7-3.3-1.7c-1.5,0-2.6,0.6-3.3,1.7c-0.7,1.1-1.1,2.6-1.1,4.4v0.3
						c0,1.8,0.4,3.3,1.1,4.4c0.7,1.1,1.8,1.7,3.3,1.7c1.5,0,2.6-0.6,3.3-1.7c0.7-1.1,1.1-2.6,1.1-4.4V307.4z"/>
					<path class="st1" d="M123.4,298.8c2,0,3.6,0.5,4.7,1.5c1.2,1,1.7,2.4,1.7,4c0,1.7-0.6,3-1.7,4c-1.2,1-2.7,1.5-4.7,1.5h-2.9v3.9
						l1.9,0.4v2.1h-7.2v-2.1l1.9-0.4v-12.5l-1.9-0.4v-2.1h1.9H123.4z M120.5,307.2h2.9c1,0,1.7-0.3,2.2-0.8c0.5-0.5,0.7-1.2,0.7-2
						c0-0.8-0.2-1.5-0.7-2.1c-0.5-0.5-1.2-0.8-2.2-0.8h-2.9V307.2z"/>
					<path class="st1" d="M132,314.1l1.2-0.2l5.3-15.1h3.6l5.3,15.1l1.2,0.2v2.1h-5.9v-2.1l1.2-0.2l-0.8-2.4h-5.6l-0.8,2.4l1.2,0.2
						v2.1H132V314.1z M138.3,309h4l-2-6.1h-0.1L138.3,309z"/>
					<path class="st1" d="M166.9,304.4h-2.6l-0.5-2.4c-0.3-0.2-0.7-0.4-1.3-0.5s-1.2-0.2-1.9-0.2c-1,0-1.7,0.2-2.2,0.6
						c-0.5,0.4-0.8,0.9-0.8,1.6c0,0.6,0.3,1.1,0.8,1.5c0.5,0.4,1.5,0.8,2.8,1.2c1.9,0.5,3.4,1.2,4.4,2.1c1,0.9,1.5,2,1.5,3.5
						c0,1.5-0.6,2.7-1.8,3.5c-1.2,0.9-2.7,1.3-4.7,1.3c-1.4,0-2.6-0.2-3.7-0.7s-2-1-2.8-1.8v-3.6h2.7l0.4,2.5
						c0.3,0.3,0.8,0.5,1.4,0.7c0.6,0.2,1.3,0.3,2,0.3c1,0,1.7-0.2,2.2-0.6c0.5-0.4,0.7-0.9,0.7-1.6c0-0.7-0.2-1.2-0.7-1.6
						s-1.3-0.8-2.5-1.1c-2.1-0.6-3.6-1.3-4.7-2.1s-1.6-1.9-1.6-3.4c0-1.4,0.6-2.6,1.8-3.5s2.7-1.4,4.5-1.4c1.3,0,2.6,0.2,3.7,0.6
						c1.1,0.4,2,0.9,2.8,1.6V304.4z"/>
				</g>
			</g>
		</g>
	</g>
</g>
<g id="XMLID_33_">
	<g id="XMLID_34_">
		<g id="XMLID_35_">
			<g id="XMLID_67_">
				
					<text id="XMLID_68_" transform="matrix(1 0 0 1 723.9865 362.791)" class="st1" style="font-family:'RobotoSlab-Bold'; font-size:40.7564px; letter-spacing:7;">WIFI</text>
			</g>
		</g>
	</g>
</g>
<path id="XMLID_1_" class="st1" d="M86.7,259.3c-2.2-2.2-34.9-21.4-35.2-21.6l-0.2-0.1v-3.3l0.1-0.1c0.4-0.4,0.9-0.8,1.5-1.2
	c2.3-1.9,5.2-4.2,5.2-8.5c0-5.3-4.2-9.5-9.5-9.5c-5.4,0-9.5,3.9-9.5,9.1c0,0.8,0.3,1.5,0.6,2c0.5,0.7,1.3,0.9,2.4,0.9
	c1.6-0.2,1.9-1.7,1.9-3.4c0-0.2,0-0.3,0-0.4c0.1-1.3,2.1-3.3,4.6-3.3c2.6,0,4.7,2.1,4.7,4.7c0,2.5-0.5,3.5-4,5.3
	c-1.6,0.8-2.5,1.6-2.5,3.7l0.1,4.1l-0.3,0.1c-0.3,0.2-33,19.3-35.2,21.6c-1.2,1.2-1.7,4.5-0.6,7.2c0.7,1.6,2.2,3.5,5.5,3.5h65.4
	c3.4,0,4.8-1.9,5.5-3.5C88.4,263.8,87.9,260.5,86.7,259.3z M79.6,265c-1.2,0-30.1,0-30.1,0s-28.9,0-30.1,0c-1.2,0-3.1-0.2-3-1.9
	c0.1-1.6,1.6-2.7,1.6-2.7l31.6-18.3L81,260.4c0,0,1.5,1,1.6,2.7C82.7,264.7,80.8,265,79.6,265z"/>
</svg>
