<?xml version="1.0" encoding="utf-8"?>
<!-- Generator: Adobe Illustrator 19.0.0, SVG Export Plug-In . SVG Version: 6.00 Build 0)  -->
<svg version="1.1" id="Layer_1" xmlns="http://www.w3.org/2000/svg" xmlns:xlink="http://www.w3.org/1999/xlink" x="0px" y="0px"
	 viewBox="-99 101 300 300" style="enable-background:new -99 101 300 300;" xml:space="preserve">
<style type="text/css">
	.st0{enable-background:new    ;}
	.st1{fill:#706F6F;}
</style>
<g id="XMLID_36_">
	<g id="XMLID_37_">
		<g id="XMLID_38_">
			<g id="XMLID_69_">
				
					<text id="XMLID_70_" transform="matrix(1 0 0 1 686.8243 316.2332)" class="st1" style="font-family:'RobotoSlab-Bold'; font-size:24.4539px; letter-spacing:3;">WIFI</text>
			</g>
		</g>
	</g>
</g>
<g id="XMLID_4_">
	<g id="XMLID_5_">
		<g id="XMLID_6_">
			<g id="XMLID_7_">
				<g class="st0">
					<path class="st1" d="M-29.6,304.4h-2.6l-0.5-2.4c-0.3-0.2-0.7-0.4-1.3-0.5s-1.2-0.2-1.9-0.2c-1,0-1.7,0.2-2.2,0.6
						c-0.5,0.4-0.8,0.9-0.8,1.6c0,0.6,0.3,1.1,0.8,1.5s1.5,0.8,2.8,1.2c1.9,0.5,3.4,1.2,4.4,2.1c1,0.9,1.5,2,1.5,3.5
						c0,1.5-0.6,2.7-1.8,3.5c-1.2,0.9-2.7,1.3-4.7,1.3c-1.4,0-2.6-0.2-3.7-0.7s-2-1-2.8-1.8v-3.6h2.7l0.4,2.5
						c0.4,0.3,0.8,0.5,1.4,0.7c0.6,0.2,1.3,0.3,2,0.3c1,0,1.7-0.2,2.2-0.6c0.5-0.4,0.7-0.9,0.7-1.6c0-0.7-0.2-1.2-0.7-1.6
						s-1.3-0.8-2.5-1.1c-2.1-0.6-3.6-1.3-4.7-2.1s-1.6-1.9-1.6-3.4c0-1.4,0.6-2.6,1.8-3.5c1.2-0.9,2.7-1.4,4.5-1.4
						c1.3,0,2.6,0.2,3.7,0.6c1.1,0.4,2,0.9,2.8,1.6V304.4z"/>
					<path class="st1" d="M-12.7,308.6h-5.9v5h5.6l0.2-2.1h2.7v4.8H-24v-2.1l1.9-0.4v-12.5L-24,301v-2.1h1.9h11.9v4.8h-2.7l-0.2-2.1
						h-5.6v4.4h5.9V308.6z"/>
					<path class="st1" d="M10,314.3c-0.6,0.6-1.4,1.1-2.5,1.5s-2.5,0.7-4.1,0.7c-2.3,0-4.3-0.8-5.7-2.4s-2.2-3.6-2.2-6.1v-0.6
						c0-2.6,0.7-4.7,2.2-6.4s3.3-2.4,5.7-2.4c1.4,0,2.6,0.2,3.7,0.7c1.1,0.4,2.1,1,2.8,1.8v3.5H7.4l-0.5-2.3
						c-0.3-0.3-0.7-0.5-1.3-0.7c-0.5-0.2-1.1-0.2-1.8-0.2c-1.5,0-2.7,0.6-3.5,1.7c-0.8,1.1-1.3,2.6-1.3,4.4v0.6
						c0,1.8,0.4,3.2,1.2,4.2c0.8,1.1,2,1.6,3.6,1.6c0.7,0,1.3-0.1,1.7-0.2c0.4-0.1,0.8-0.3,1-0.4v-2.9l-2.5-0.2v-2.4h6V314.3z"/>
					<path class="st1" d="M22.8,298.8v2.1l-1.9,0.4v9.1c0,1.1,0.3,2,0.9,2.6c0.6,0.6,1.5,0.9,2.5,0.9c1.1,0,1.9-0.3,2.6-0.8
						c0.6-0.6,0.9-1.4,0.9-2.6v-9.1L26,301v-2.1h7.2v2.1l-1.9,0.4v9.1c0,2-0.6,3.5-1.9,4.5s-3,1.6-5.1,1.6c-2.1,0-3.8-0.5-5-1.6
						c-1.3-1.1-1.9-2.6-1.9-4.5v-9.1l-1.9-0.4v-2.1h1.9h3.5H22.8z"/>
					<path class="st1" d="M46,298.8c2,0,3.5,0.5,4.6,1.4c1.1,0.9,1.7,2.2,1.7,3.7c0,0.9-0.2,1.6-0.7,2.3s-1.2,1.2-2.1,1.6
						c1,0.3,1.8,0.8,2.2,1.5c0.4,0.7,0.7,1.6,0.7,2.6v0.9c0,0.4,0.1,0.7,0.2,0.9c0.2,0.2,0.4,0.3,0.8,0.4l0.4,0.1v2.1h-1.8
						c-1.1,0-1.9-0.3-2.4-0.9c-0.5-0.6-0.7-1.4-0.7-2.4v-1c0-0.8-0.2-1.5-0.7-2s-1.1-0.7-1.9-0.8h-2.9v4.6l1.9,0.4v2.1h-7.2v-2.1
						l1.9-0.4v-12.5l-1.9-0.4v-2.1h1.9H46z M43.6,306.5H46c1,0,1.7-0.2,2.2-0.6c0.5-0.4,0.7-1,0.7-1.8c0-0.8-0.2-1.4-0.7-1.9
						s-1.2-0.7-2.1-0.7h-2.5V306.5z"/>
					<path class="st1" d="M59,301v-2.1h7.2v2.1l-1.9,0.4v12.5l1.9,0.4v2.1H59v-2.1l1.9-0.4v-12.5L59,301z"/>
					<path class="st1" d="M79.4,298.8c2.1,0,3.9,0.7,5.3,2c1.4,1.4,2.1,3.1,2.1,5.2v2.9c0,2.1-0.7,3.9-2.1,5.2c-1.4,1.3-3.1,2-5.3,2
						h-7.8v-2.1l1.9-0.4v-12.5l-1.9-0.4v-2.1h1.9H79.4z M76.9,301.5v12h2.3c1.2,0,2.2-0.4,2.9-1.3c0.7-0.8,1.1-1.9,1.1-3.3v-2.9
						c0-1.3-0.4-2.4-1.1-3.3c-0.7-0.8-1.7-1.3-2.9-1.3H76.9z"/>
					<path class="st1" d="M91.5,314.1l1.2-0.2l5.3-15.1h3.6l5.3,15.1l1.2,0.2v2.1h-5.9v-2.1l1.2-0.2l-0.8-2.4H97l-0.8,2.4l1.2,0.2
						v2.1h-5.9V314.1z M97.8,309h4l-2-6.1h-0.1L97.8,309z"/>
					<path class="st1" d="M121,298.8c2.1,0,3.9,0.7,5.3,2c1.4,1.4,2.1,3.1,2.1,5.2v2.9c0,2.1-0.7,3.9-2.1,5.2c-1.4,1.3-3.1,2-5.3,2
						h-7.8v-2.1l1.9-0.4v-12.5l-1.9-0.4v-2.1h1.9H121z M118.5,301.5v12h2.3c1.2,0,2.2-0.4,2.9-1.3c0.7-0.8,1.1-1.9,1.1-3.3v-2.9
						c0-1.3-0.4-2.4-1.1-3.3c-0.7-0.8-1.7-1.3-2.9-1.3H118.5z"/>
					<path class="st1" d="M-13.7,328.2c2,0,3.6,0.5,4.7,1.5c1.2,1,1.7,2.4,1.7,4c0,1.7-0.6,3-1.7,4c-1.2,1-2.7,1.5-4.7,1.5h-2.9v3.9
						l1.9,0.4v2.1H-22v-2.1l1.9-0.4v-12.5l-1.9-0.4v-2.1h1.9H-13.7z M-16.6,336.6h2.9c1,0,1.7-0.3,2.2-0.8c0.5-0.5,0.7-1.2,0.7-2
						c0-0.8-0.2-1.5-0.7-2.1c-0.5-0.5-1.2-0.8-2.2-0.8h-2.9V336.6z"/>
					<path class="st1" d="M5.6,328.2c2,0,3.5,0.5,4.6,1.4c1.1,0.9,1.7,2.2,1.7,3.7c0,0.9-0.2,1.6-0.7,2.3s-1.2,1.2-2.1,1.6
						c1,0.3,1.8,0.8,2.2,1.5c0.4,0.7,0.7,1.6,0.7,2.6v0.9c0,0.4,0.1,0.7,0.2,0.9c0.2,0.2,0.4,0.3,0.8,0.4l0.4,0.1v2.1h-1.8
						c-1.1,0-1.9-0.3-2.4-0.9c-0.5-0.6-0.7-1.4-0.7-2.4v-1c0-0.8-0.2-1.5-0.7-2s-1.1-0.7-1.9-0.8H3.2v4.6l1.9,0.4v2.1h-7.2v-2.1
						l1.9-0.4v-12.5l-1.9-0.4v-2.1h1.9H5.6z M3.2,335.9h2.4c1,0,1.7-0.2,2.2-0.6c0.5-0.4,0.7-1,0.7-1.8c0-0.8-0.2-1.4-0.7-1.9
						s-1.2-0.7-2.1-0.7H3.2V335.9z"/>
					<path class="st1" d="M18.6,330.3v-2.1h7.2v2.1l-1.9,0.4v12.5l1.9,0.4v2.1h-7.2v-2.1l1.9-0.4v-12.5L18.6,330.3z"/>
					<path class="st1" d="M37.2,330.3l-1.3,0.2L39,341l0.2,1h0.1l0.2-0.9l3.1-10.4l-1.3-0.2v-2.1h6.4v2.1l-1.5,0.2L41,345.6h-3.6
						l-5.1-15.1l-1.4-0.2v-2.1h6.4V330.3z"/>
					<path class="st1" d="M49.8,343.5l1.2-0.2l5.3-15.1h3.6l5.3,15.1l1.2,0.2v2.1h-5.9v-2.1l1.2-0.2l-0.8-2.4h-5.6l-0.8,2.4l1.2,0.2
						v2.1h-5.9V343.5z M56.1,338.3h4l-2-6.1h-0.1L56.1,338.3z"/>
					<path class="st1" d="M79.4,328.2c2.1,0,3.9,0.7,5.3,2c1.4,1.4,2.1,3.1,2.1,5.2v2.9c0,2.1-0.7,3.9-2.1,5.2c-1.4,1.3-3.1,2-5.3,2
						h-7.8v-2.1l1.9-0.4v-12.5l-1.9-0.4v-2.1h1.9H79.4z M76.9,330.9v12h2.3c1.2,0,2.2-0.4,2.9-1.3c0.7-0.8,1.1-1.9,1.1-3.3v-2.9
						c0-1.3-0.4-2.4-1.1-3.3c-0.7-0.8-1.7-1.3-2.9-1.3H76.9z"/>
					<path class="st1" d="M91.5,343.5l1.2-0.2l5.3-15.1h3.6l5.3,15.1l1.2,0.2v2.1h-5.9v-2.1l1.2-0.2l-0.8-2.4H97l-0.8,2.4l1.2,0.2
						v2.1h-5.9V343.5z M97.8,338.3h4l-2-6.1h-0.1L97.8,338.3z"/>
				</g>
			</g>
		</g>
	</g>
</g>
<g id="XMLID_33_">
	<g id="XMLID_34_">
		<g id="XMLID_35_">
			<g id="XMLID_67_">
				
					<text id="XMLID_68_" transform="matrix(1 0 0 1 723.9865 362.791)" class="st1" style="font-family:'RobotoSlab-Bold'; font-size:40.7564px; letter-spacing:7;">WIFI</text>
			</g>
		</g>
	</g>
</g>
<g>
	<path class="st1" d="M28.9,242.2c-0.1,0-0.1,0-0.2,0c-0.1,0-0.2,0-0.2,0c-0.4,0-0.9-0.2-1.2-0.4c-0.1-0.1-0.3-0.2-0.4-0.2
		c-0.2,0-0.3,0.1-0.3,0.4c0,0.4-0.4,1-0.8,1.2c-0.4,0.2-0.4,0.5,0,0.7c0.4,0.2,0.9,0.7,0.9,1.1c0.1,0.3,0.2,0.4,0.4,0.4
		c0.1,0,0.2-0.1,0.4-0.2c0.3-0.3,0.8-0.5,1.2-0.5c0.1,0,0.1,0,0.2,0c0,0,0.1,0,0.1,0c0.4,0,0.5-0.3,0.3-0.6c-0.2-0.4-0.3-1-0.1-1.4
		C29.3,242.5,29.2,242.2,28.9,242.2z"/>
	<path class="st1" d="M22.7,244.6c-0.1,0-0.1,0-0.2,0c-0.1,0-0.2,0-0.2,0c-0.4,0-0.9-0.2-1.2-0.4c-0.1-0.1-0.3-0.2-0.4-0.2
		c-0.2,0-0.3,0.1-0.3,0.4c0,0.4-0.4,1-0.8,1.2c-0.4,0.2-0.4,0.5,0,0.7c0.4,0.2,0.9,0.7,0.9,1.1c0.1,0.3,0.2,0.4,0.4,0.4
		c0.1,0,0.2-0.1,0.4-0.2c0.3-0.3,0.8-0.5,1.2-0.5c0.1,0,0.1,0,0.2,0c0,0,0.1,0,0.1,0c0.4,0,0.5-0.3,0.3-0.6c-0.2-0.4-0.3-1-0.1-1.4
		C23.2,244.8,23,244.6,22.7,244.6z"/>
	<path class="st1" d="M69.1,244.9c0,0,0.1,0,0.1,0c0.1,0,0.1,0,0.2,0c0.4,0,0.9,0.2,1.2,0.5c0.1,0.1,0.2,0.2,0.4,0.2
		c0.2,0,0.3-0.1,0.4-0.4c0.1-0.4,0.5-0.9,0.9-1.1c0.4-0.2,0.4-0.5,0-0.7c-0.4-0.2-0.8-0.7-0.8-1.2c0-0.3-0.1-0.4-0.3-0.4
		c-0.1,0-0.2,0.1-0.4,0.2c-0.3,0.3-0.8,0.4-1.2,0.4c-0.1,0-0.2,0-0.2,0c-0.1,0-0.1,0-0.2,0c-0.3,0-0.5,0.2-0.3,0.6
		c0.2,0.4,0.1,1-0.1,1.4C68.6,244.6,68.7,244.9,69.1,244.9z"/>
	<path class="st1" d="M75.2,247.2c0,0,0.1,0,0.1,0c0.1,0,0.1,0,0.2,0c0.4,0,0.9,0.2,1.2,0.5c0.1,0.1,0.2,0.2,0.4,0.2
		c0.2,0,0.3-0.1,0.4-0.4c0.1-0.4,0.5-0.9,0.9-1.1c0.4-0.2,0.4-0.5,0-0.7c-0.4-0.2-0.8-0.7-0.8-1.2c0-0.3-0.1-0.4-0.3-0.4
		c-0.1,0-0.2,0.1-0.4,0.2c-0.3,0.3-0.8,0.4-1.2,0.4c-0.1,0-0.2,0-0.2,0c-0.1,0-0.1,0-0.2,0c-0.3,0-0.5,0.2-0.3,0.6
		c0.2,0.4,0.1,1-0.1,1.4C74.8,246.9,74.9,247.2,75.2,247.2z"/>
	<path class="st1" d="M18.9,262.2c0,0.9,0.7,1.7,1.5,2l4.8,1.7c0.4,0.1,0.6,0.2,0.7,0.2c0.1,0,0.3-0.1,0.7-0.2l4.8-1.7
		c0.8-0.2,1.5-1.1,1.5-2v-8.5c0-0.9-0.7-1.5-1.5-1.5H20.4c-0.9,0-1.5,0.7-1.5,1.5V262.2z M22,255.2h7.7v6.2l-3.9,1.4l-3.9-1.4V255.2
		z"/>
	<path class="st1" d="M64.5,253.7v8.5c0,0.9,0.7,1.7,1.5,2l4.8,1.7c0.4,0.1,0.6,0.2,0.7,0.2c0.1,0,0.3-0.1,0.7-0.2l4.8-1.7
		c0.8-0.2,1.5-1.1,1.5-2v-8.5c0-0.9-0.7-1.5-1.5-1.5H66C65.2,252.1,64.5,252.8,64.5,253.7z M67.6,255.2h7.7v6.2l-3.9,1.4l-3.9-1.4
		V255.2z"/>
	<path class="st1" d="M93.1,255.4c-1-15.5-21.8-18.7-21.8-18.7c-5.1-0.9-8-5.1-9.3-8c4.1-4.8,7-11.4,8.6-17.3c0.6-2,0.9-4.2,0.9-6.3
		c0.5-0.8,0.8-1.6,0.8-2.3c0-1.3,0.9-3.5,2-4.8l2.8-3.4c1.1-1.3,0.8-3.1-0.6-4.1c-8.1-5.8-24.9-16.4-24.9-16.4
		c-0.7-0.5-1.7-0.7-2.7-0.7c-0.9,0-1.9,0.2-2.6,0.7c0,0-18,11-24.7,16.2c-1.2,0.9-1.6,3-0.1,4.6c2.4,2.5,3.3,3.5,3.3,3.5
		c1.2,1.2,2.1,3.5,2.1,5.1c0,1,0.6,2.1,1.4,2.8c0.4,7.5,3.5,16.3,8.1,22.1c-0.9,2-2.5,4.6-5.1,6.4l-0.4,0.3
		c-1.1,0.7-2.4,1.3-3.9,1.5c0,0-20.8,3.3-21.8,18.7c0,0-0.5,1.4,0.6,11c0.4,3.2,3.4,5.9,6.8,5.9h31.1l-0.9-0.7
		c-0.9-0.6-1.5-1.5-2-2.4H12.4c-1.8,0-3.5-1.5-3.7-3.1c-0.8-7-0.7-9.3-0.6-9.9l0.1-0.1l0-0.4c0.8-12.8,19-15.8,19.2-15.9l0,0l0,0
		c1.2-0.2,2.2-0.5,3.2-1l8.3,11.9c0.5,1,1.2,1.5,1.9,1.5c0.6,0,1.3-0.3,1.8-1l1.6-2.6l1.1,1.9l-2.4,14.8c-0.3,1.4,0.3,3,1.5,3.8
		l3.7,2.7c0.4,0.3,0.9,0.5,1.4,0.5c0.5,0,0.9-0.1,1.4-0.5l3.6-2.7c1.2-0.8,1.8-2.5,1.4-3.9l-3-14.7l1-1.8l1.5,2.5
		c0.6,0.7,1.2,1,1.8,1c0.8,0,1.5-0.5,1.9-1.5l8.4-12c1,0.4,2.1,0.8,3.3,1l0,0l0,0c0.2,0,18.3,3.1,19.2,15.8c0,0.3,0,2.8-0.7,10.5
		c-0.2,1.6-1.8,3.1-3.6,3.1H58.3c-0.5,0.9-1.2,1.8-2,2.4l-0.9,0.7h30.3c3.3,0,6.4-2.6,6.7-5.9C93.2,257.7,93.1,255.4,93.1,255.4z
		 M51.6,239.4c-0.3,0.3-0.5,0.7-0.7,1.1h-3.8c-0.2-0.4-0.4-0.8-0.7-1.1l-8.7-7.3c0.3-0.5,0.5-0.9,0.8-1.4c3.1,2.8,7,4.3,10.9,4.3
		c3.3,0,6.6-1.1,9.5-3.5c0.2-0.2,0.5-0.4,0.7-0.6c0.2,0.4,0.4,0.7,0.6,1.1L51.6,239.4z M57,229.3c-2.1,1.8-4.7,2.7-7.5,2.7
		c-3.9,0-7.6-1.8-10.3-4.9c-4-4.7-7.1-12.5-7.8-19.5c3,0.7,9.9,2,18,2c0.2,0,0.4,0,0.6,0c10.7-0.1,15.9-1.2,18.1-1.9
		c-0.1,1-0.3,1.9-0.6,2.9C65.4,218.5,61.5,225.5,57,229.3z M49,202.6c2.3,0,4.3-1.2,5.4-3.1h15.4c-0.4,1.1-0.7,2.2-0.7,3.2
		c-0.1,0.3-0.5,1.2-1.1,1.7c-0.5,0.3-4.7,2-18,2.1c-0.2,0-0.4,0-0.6,0c-10.3,0-18.7-2.3-18.8-2.3c-0.3-0.1-0.7-0.5-0.7-0.7
		c0-1.2-0.3-2.6-0.9-3.9h14.6C44.8,201.4,46.7,202.6,49,202.6z M45.9,196.5c0-1.7,1.4-3.1,3.1-3.1c1.7,0,3.1,1.4,3.1,3.1
		s-1.4,3.1-3.1,3.1C47.3,199.6,45.9,198.2,45.9,196.5z M23.6,192.7c0,0-0.1-0.1-0.1-0.1c6.6-5.1,24.1-15.8,24.3-15.9
		c0.1-0.1,0.5-0.2,1-0.2c0.5,0,0.9,0.1,1,0.2c0.2,0.1,16.6,10.5,24.6,16.1l-2.6,3.2c-0.1,0.1-0.2,0.3-0.3,0.4H55.2
		c0-3.4-2.8-6.2-6.2-6.2c-3.4,0-6.2,2.8-6.2,6.2H27.1c-0.1-0.1-0.1-0.1-0.2-0.2L23.6,192.7z M40.9,248.1l-7.6-10.9l1-0.6l0.3-0.2
		l0.3-0.3l1.1-1.3l8.2,6.9c0.2,0.3,0.2,0.9-0.1,1.2L44,243l-0.1,0.2L40.9,248.1z M52.9,266c0,0.1-0.1,0.5-0.2,0.6l-3.2,2.3l-3.2-2.4
		c-0.2-0.1-0.3-0.5-0.3-0.7l2.5-15.3h1.2L52.9,266L52.9,266z M51,247.5h-3.7l-1.1-2l0.4-0.7c0.3-0.3,0.5-0.7,0.7-1.2h3.6
		c0.2,0.4,0.4,0.8,0.7,1.2l0.5,0.8L51,247.5z M57.1,248.1l-3-4.9L54,243l-0.2-0.2c-0.2-0.3-0.3-0.8-0.1-1.2l8.2-6.9l1.1,1.3l0.3,0.3
		l0.3,0.2l1,0.6L57.1,248.1z"/>
</g>
</svg>
